<svg preserveAspectRatio="none" width="100%" height="100%" overflow="visible" style="display: block;" viewBox="0 0 24.3294 23.6655" fill="none" xmlns="http://www.w3.org/2000/svg">
<g id="Ellipse 1" filter="url(#filter0_d_0_181)">
<circle cx="12.3514" cy="8.15665" r="7" fill="var(--fill-0, #FFEB79)"/>
<path d="M19.1053 8.86508L18.1607 8.53697L19.1053 8.86508ZM18.9823 9.21929L19.9269 9.54741L18.9823 9.21929ZM18.7218 9.89976L17.8002 9.51154L18.7218 9.89976ZM18.4469 10.5523L19.3685 10.9405L18.4469 10.5523ZM18.1192 12.9671L17.4834 12.1953L18.1192 12.9671ZM17.8075 13.2238L18.4433 13.9957L17.8075 13.2238ZM17.4959 13.4806L16.86 12.7087L17.4959 13.4806ZM16.7568 13.7737L16.8417 14.7701L16.7568 13.7737ZM15.902 13.8465L15.8172 12.8501L15.902 13.8465ZM15.1524 14.0153L15.5323 14.9403L15.1524 14.0153ZM14.8301 14.1477L14.4501 13.2227L14.8301 14.1477ZM14.5078 14.2801L14.1279 13.3551L14.5078 14.2801ZM13.8424 14.4715L14.0119 15.457L13.8424 14.4715ZM13.4993 14.5304L13.3299 13.5449L13.4993 14.5304ZM13.1562 14.5894L13.3256 15.575L13.1562 14.5894ZM12.4632 14.6471L12.4593 15.6471L12.4632 14.6471ZM11.7636 14.6443L11.7675 13.6443L11.7636 14.6443ZM11.0393 14.6503L11.0199 13.6504L11.0393 14.6503ZM10.6649 14.6575L10.6454 13.6577L10.6649 14.6575ZM10.2904 14.6648L10.3099 15.6646L10.2904 14.6648ZM9.52541 14.5956L9.71782 13.6142L9.52541 14.5956ZM8.74432 14.4424L8.93672 13.4611L8.74432 14.4424ZM8.20258 13.9622L7.26611 14.3129L8.20258 13.9622ZM8.05139 13.5585L8.98785 13.2077L8.05139 13.5585ZM7.90019 13.1548L6.96372 13.5056L7.90019 13.1548ZM7.47469 12.5163L8.12506 11.7567L7.47469 12.5163ZM6.92608 12.0466L6.27571 12.8062L6.92608 12.0466ZM6.53354 11.4717L7.47807 11.1433L6.53354 11.4717ZM6.41532 11.1317L5.47079 11.4602L6.41532 11.1317ZM5.8748 10.1415L6.58903 9.44155L5.8748 10.1415ZM5.57073 9.83118L4.8565 10.5311L5.57073 9.83118ZM5.26666 9.52089L4.55243 10.2208L5.26666 9.52089ZM5.09087 8.02642L4.09669 7.91872L5.09087 8.02642ZM5.43328 6.51683L4.46756 6.25727L5.43328 6.51683ZM5.5788 5.73927L4.58506 5.62756L5.5788 5.73927ZM5.67007 4.92739L4.67633 4.81568L5.67007 4.92739ZM6.01304 4.24708L5.33489 3.51216L6.01304 4.24708ZM6.60772 3.69835L7.28587 4.43327L6.60772 3.69835ZM7.25456 3.25088L6.81073 2.35477L7.25456 3.25088ZM7.60405 3.07778L8.04788 3.97389L7.60405 3.07778ZM7.95355 2.90468L7.50972 2.00857L7.95355 2.90468ZM8.56436 2.43725L9.31216 3.10118L8.56436 2.43725ZM8.82568 2.14293L8.07788 1.479L8.82568 2.14293ZM9.08699 1.8486L8.33919 1.18468L9.08699 1.8486ZM9.74204 1.55125L9.73435 0.551277L9.74204 1.55125ZM12.7556 1.37361L12.4123 0.434381L12.7556 1.37361ZM13.5413 1.08644L13.198 0.147216L13.5413 1.08644ZM14.3226 1.0378L14.0852 2.00922L14.3226 1.0378ZM15.7555 1.6321L16.5123 0.978416L15.7555 1.6321ZM16.2901 2.25103L15.5334 2.90472L16.2901 2.25103ZM17.5297 3.19622L16.9824 4.03318L17.5297 3.19622ZM17.9604 3.78999L16.9973 4.05909L17.9604 3.78999ZM18.1738 4.55373L19.137 4.28463L18.1738 4.55373ZM18.3562 5.28694L17.3786 5.49753L18.3562 5.28694ZM18.4319 5.63829L17.4543 5.84888L18.4319 5.63829ZM18.5076 5.98964L19.4852 5.77905L18.5076 5.98964ZM19.0795 7.34424L18.1832 7.78761L19.0795 7.34424ZM19.2716 7.79816L20.2477 7.58085L19.2716 7.79816ZM19.2982 7.91765L18.3221 8.13497L19.2982 7.91765ZM19.3248 8.03715L20.3009 7.81984L19.3248 8.03715ZM19.2283 8.51086L18.2837 8.18275L19.2283 8.51086ZM19.1053 8.86508L18.1607 8.53697L18.0376 8.89118L18.9823 9.21929L19.9269 9.54741L20.0499 9.19319L19.1053 8.86508ZM18.9823 9.21929L18.0376 8.89118C17.9622 9.10823 17.883 9.31495 17.8002 9.51154L18.7218 9.89976L19.6434 10.288C19.7438 10.0496 19.8382 9.80264 19.9269 9.54741L18.9823 9.21929ZM18.7218 9.89976L17.8002 9.51154L17.6628 9.83779L18.5844 10.226L19.5059 10.6142L19.6434 10.288L18.7218 9.89976ZM18.5844 10.226L17.6628 9.83779L17.5254 10.164L18.4469 10.5523L19.3685 10.9405L19.5059 10.6142L18.5844 10.226ZM18.4469 10.5523L17.5254 10.164C17.3581 10.5611 17.3144 10.9864 17.342 11.4026L18.3398 11.3365L19.3376 11.2703C19.3248 11.0759 19.3525 10.9785 19.3685 10.9405L18.4469 10.5523ZM18.3398 11.3365L17.342 11.4026L17.3724 11.8606L18.3702 11.7944L19.368 11.7283L19.3376 11.2703L18.3398 11.3365ZM18.3702 11.7944L17.3724 11.8606L17.4027 12.3185L18.4005 12.2524L19.3983 12.1863L19.368 11.7283L18.3702 11.7944ZM18.4005 12.2524L17.4027 12.3185C17.405 12.3522 17.3981 12.3363 17.4149 12.2938C17.423 12.2732 17.4344 12.2522 17.4485 12.2331C17.4625 12.2141 17.4755 12.2018 17.4834 12.1953L18.1192 12.9671L18.755 13.7389C19.2481 13.3328 19.4365 12.7623 19.3983 12.1863L18.4005 12.2524ZM18.1192 12.9671L17.4834 12.1953L17.1717 12.452L17.8075 13.2238L18.4433 13.9957L18.755 13.7389L18.1192 12.9671ZM17.8075 13.2238L17.1717 12.452L16.86 12.7087L17.4959 13.4806L18.1317 14.2524L18.4433 13.9957L17.8075 13.2238ZM17.4959 13.4806L16.86 12.7087C16.8189 12.7427 16.768 12.7692 16.6719 12.7773L16.7568 13.7737L16.8417 14.7701C17.3155 14.7298 17.7573 14.5608 18.1317 14.2524L17.4959 13.4806ZM16.7568 13.7737L16.6719 12.7773L16.2446 12.8137L16.3294 13.8101L16.4143 14.8065L16.8417 14.7701L16.7568 13.7737ZM16.3294 13.8101L16.2446 12.8137L15.8172 12.8501L15.902 13.8465L15.9869 14.8429L16.4143 14.8065L16.3294 13.8101ZM15.902 13.8465L15.8172 12.8501C15.4533 12.8811 15.1003 12.9556 14.7724 13.0903L15.1524 14.0153L15.5323 14.9403C15.6342 14.8985 15.7809 14.8605 15.9869 14.8429L15.902 13.8465ZM15.1524 14.0153L14.7724 13.0903L14.4501 13.2227L14.8301 14.1477L15.2101 15.0727L15.5323 14.9403L15.1524 14.0153ZM14.8301 14.1477L14.4501 13.2227L14.1279 13.3551L14.5078 14.2801L14.8878 15.2051L15.2101 15.0727L14.8301 14.1477ZM14.5078 14.2801L14.1279 13.3551C13.9807 13.4155 13.8295 13.459 13.673 13.4859L13.8424 14.4715L14.0119 15.457C14.3129 15.4052 14.6052 15.3211 14.8878 15.2051L14.5078 14.2801ZM13.8424 14.4715L13.673 13.4859L13.3299 13.5449L13.4993 14.5304L13.6688 15.516L14.0119 15.457L13.8424 14.4715ZM13.4993 14.5304L13.3299 13.5449L12.9867 13.6039L13.1562 14.5894L13.3256 15.575L13.6688 15.516L13.4993 14.5304ZM13.1562 14.5894L12.9867 13.6039C12.8155 13.6333 12.6426 13.6478 12.4672 13.6471L12.4632 14.6471L12.4593 15.6471C12.7504 15.6482 13.0394 15.6242 13.3256 15.575L13.1562 14.5894ZM12.4632 14.6471L12.4672 13.6471L12.1173 13.6457L12.1134 14.6457L12.1095 15.6457L12.4593 15.6471L12.4632 14.6471ZM12.1134 14.6457L12.1173 13.6457L11.7675 13.6443L11.7636 14.6443L11.7597 15.6443L12.1095 15.6457L12.1134 14.6457ZM11.7636 14.6443L11.7675 13.6443C11.526 13.6434 11.2767 13.6454 11.0199 13.6504L11.0393 14.6503L11.0588 15.6501C11.3012 15.6454 11.5348 15.6435 11.7597 15.6443L11.7636 14.6443ZM11.0393 14.6503L11.0199 13.6504L10.6454 13.6577L10.6649 14.6575L10.6843 15.6574L11.0588 15.6501L11.0393 14.6503ZM10.6649 14.6575L10.6454 13.6577L10.271 13.665L10.2904 14.6648L10.3099 15.6646L10.6843 15.6574L10.6649 14.6575ZM10.2904 14.6648L10.271 13.665C10.0967 13.6684 9.91276 13.6525 9.71782 13.6142L9.52541 14.5956L9.33301 15.5769C9.6588 15.6407 9.98487 15.671 10.3099 15.6646L10.2904 14.6648ZM9.52541 14.5956L9.71782 13.6142L9.32727 13.5377L9.13487 14.519L8.94247 15.5003L9.33301 15.5769L9.52541 14.5956ZM9.13487 14.519L9.32727 13.5377L8.93672 13.4611L8.74432 14.4424L8.55192 15.4237L8.94247 15.5003L9.13487 14.519ZM8.74432 14.4424L8.93672 13.4611C8.96359 13.4664 9.02083 13.486 9.07697 13.5358C9.13007 13.5828 9.14309 13.6222 9.13905 13.6114L8.20258 13.9622L7.26611 14.3129C7.4765 14.8746 7.91817 15.2995 8.55192 15.4237L8.74432 14.4424ZM8.20258 13.9622L9.13905 13.6114L8.98785 13.2077L8.05139 13.5585L7.11492 13.9092L7.26611 14.3129L8.20258 13.9622ZM8.05139 13.5585L8.98785 13.2077L8.83666 12.8041L7.90019 13.1548L6.96372 13.5056L7.11492 13.9092L8.05139 13.5585ZM7.90019 13.1548L8.83666 12.8041C8.68805 12.4073 8.45905 12.0426 8.12506 11.7567L7.47469 12.5163L6.82432 13.2759C6.85607 13.3031 6.91074 13.3641 6.96372 13.5056L7.90019 13.1548ZM7.47469 12.5163L8.12506 11.7567L7.85075 11.5218L7.20038 12.2814L6.55002 13.0411L6.82432 13.2759L7.47469 12.5163ZM7.20038 12.2814L7.85075 11.5218L7.57644 11.287L6.92608 12.0466L6.27571 12.8062L6.55002 13.0411L7.20038 12.2814ZM6.92608 12.0466L7.57644 11.287C7.52762 11.2452 7.49854 11.2022 7.47807 11.1433L6.53354 11.4717L5.58902 11.8002C5.72618 12.1946 5.95879 12.5349 6.27571 12.8062L6.92608 12.0466ZM6.53354 11.4717L7.47807 11.1433L7.35984 10.8033L6.41532 11.1317L5.47079 11.4602L5.58902 11.8002L6.53354 11.4717ZM6.41532 11.1317L7.35984 10.8033L7.24162 10.4633L6.29709 10.7918L5.35257 11.1202L5.47079 11.4602L6.41532 11.1317ZM6.29709 10.7918L7.24162 10.4633C7.10539 10.0715 6.87394 9.7323 6.58903 9.44155L5.8748 10.1415L5.16057 10.8414C5.28108 10.9644 5.33116 11.0586 5.35257 11.1202L6.29709 10.7918ZM5.8748 10.1415L6.58903 9.44155L6.28496 9.13126L5.57073 9.83118L4.8565 10.5311L5.16057 10.8414L5.8748 10.1415ZM5.57073 9.83118L6.28496 9.13126L5.98089 8.82097L5.26666 9.52089L4.55243 10.2208L4.8565 10.5311L5.57073 9.83118ZM5.26666 9.52089L5.98089 8.82097C5.96273 8.80245 5.97461 8.80862 5.98696 8.84195C5.99279 8.85768 5.99686 8.87462 5.9988 8.89114C6.00071 8.90744 6.00004 8.91884 5.99953 8.92357L5.00535 8.81587L4.01117 8.70817C3.94712 9.29933 4.16269 9.82309 4.55243 10.2208L5.26666 9.52089ZM5.00535 8.81587L5.99953 8.92357L6.04229 8.52885L5.04811 8.42114L4.05393 8.31344L4.01117 8.70817L5.00535 8.81587ZM5.04811 8.42114L6.04229 8.52885L6.08506 8.13412L5.09087 8.02642L4.09669 7.91872L4.05393 8.31344L5.04811 8.42114ZM5.09087 8.02642L6.08506 8.13412C6.10818 7.92063 6.14646 7.71602 6.19924 7.51964L5.23352 7.26007L4.26779 7.00051C4.1874 7.29962 4.13058 7.60591 4.09669 7.91872L5.09087 8.02642ZM5.23352 7.26007L6.19924 7.51964L6.29913 7.14802L5.3334 6.88845L4.36767 6.62889L4.26779 7.00051L5.23352 7.26007ZM5.3334 6.88845L6.29913 7.14802L6.39901 6.7764L5.43328 6.51683L4.46756 6.25727L4.36767 6.62889L5.3334 6.88845ZM5.43328 6.51683L6.39901 6.7764C6.47941 6.47727 6.53685 6.16849 6.57254 5.85098L5.5788 5.73927L4.58506 5.62756C4.55991 5.85131 4.52034 6.0609 4.46756 6.25727L5.43328 6.51683ZM5.5788 5.73927L6.57254 5.85098L6.61817 5.44504L5.62443 5.33333L4.63069 5.22162L4.58506 5.62756L5.5788 5.73927ZM5.62443 5.33333L6.61817 5.44504L6.66381 5.0391L5.67007 4.92739L4.67633 4.81568L4.63069 5.22162L5.62443 5.33333ZM5.67007 4.92739L6.66381 5.0391C6.66536 5.02531 6.66745 5.01667 6.66879 5.01206C6.67009 5.00757 6.67113 5.00539 6.67157 5.00452C6.67201 5.00365 6.67292 5.00197 6.67515 4.99904C6.67745 4.99603 6.68226 4.99025 6.69119 4.98201L6.01304 4.24708L5.33489 3.51216C4.9581 3.85984 4.73332 4.30867 4.67633 4.81568L5.67007 4.92739ZM6.01304 4.24708L6.69119 4.98201L6.98853 4.70764L6.31038 3.97271L5.63223 3.23779L5.33489 3.51216L6.01304 4.24708ZM6.31038 3.97271L6.98853 4.70764L7.28587 4.43327L6.60772 3.69835L5.92957 2.96342L5.63223 3.23779L6.31038 3.97271ZM6.60772 3.69835L7.28587 4.43327C7.4167 4.31255 7.55393 4.21854 7.69839 4.14699L7.25456 3.25088L6.81073 2.35477C6.48919 2.51402 6.1952 2.71832 5.92957 2.96342L6.60772 3.69835ZM7.25456 3.25088L7.69839 4.14699L8.04788 3.97389L7.60405 3.07778L7.16023 2.18167L6.81073 2.35477L7.25456 3.25088ZM7.60405 3.07778L8.04788 3.97389L8.39738 3.80079L7.95355 2.90468L7.50972 2.00857L7.16023 2.18167L7.60405 3.07778ZM7.95355 2.90468L8.39738 3.80079C8.74678 3.62774 9.05332 3.39272 9.31216 3.10118L8.56436 2.43725L7.81656 1.77333C7.72699 1.87421 7.62632 1.95082 7.50972 2.00857L7.95355 2.90468ZM8.56436 2.43725L9.31216 3.10118L9.57348 2.80685L8.82568 2.14293L8.07788 1.479L7.81656 1.77333L8.56436 2.43725ZM8.82568 2.14293L9.57348 2.80685L9.83479 2.51253L9.08699 1.8486L8.33919 1.18468L8.07788 1.479L8.82568 2.14293ZM9.08699 1.8486L9.83479 2.51253C9.83709 2.50994 9.83478 2.51298 9.82712 2.51875C9.81925 2.52467 9.80827 2.53154 9.79476 2.53767C9.78124 2.54381 9.76886 2.54754 9.75928 2.54956C9.74994 2.55152 9.74619 2.55124 9.74974 2.55122L9.74204 1.55125L9.73435 0.551277C9.18884 0.555473 8.70149 0.776612 8.33919 1.18468L9.08699 1.8486ZM9.74204 1.55125L9.74974 2.55122L10.1435 2.54819L10.1358 1.54822L10.1281 0.548248L9.73435 0.551277L9.74204 1.55125ZM10.1358 1.54822L10.1435 2.54819L10.5372 2.54516L10.5295 1.54519L10.5218 0.545219L10.1281 0.548248L10.1358 1.54822ZM10.5295 1.54519L10.5372 2.54516C10.8026 2.54312 11.0571 2.53999 11.3005 2.53577L11.2831 1.53592L11.2658 0.536068C11.0294 0.540169 10.7814 0.543222 10.5218 0.545219L10.5295 1.54519ZM11.2831 1.53592L11.3005 2.53577L11.6604 2.52952L11.643 1.52968L11.6257 0.529826L11.2658 0.536068L11.2831 1.53592ZM11.643 1.52968L11.6604 2.52952L12.0203 2.52328L12.0029 1.52343L11.9856 0.523583L11.6257 0.529826L11.643 1.52968ZM12.0029 1.52343L12.0203 2.52328C12.3878 2.51691 12.7491 2.4407 13.0989 2.31283L12.7556 1.37361L12.4123 0.434381C12.2384 0.497964 12.0978 0.521636 11.9856 0.523583L12.0029 1.52343ZM12.7556 1.37361L13.0989 2.31283L13.4917 2.16925L13.1484 1.23003L12.8051 0.290798L12.4123 0.434381L12.7556 1.37361ZM13.1484 1.23003L13.4917 2.16925L13.8846 2.02567L13.5413 1.08644L13.198 0.147216L12.8051 0.290798L13.1484 1.23003ZM13.5413 1.08644L13.8846 2.02567C13.9693 1.99468 14.0278 1.99518 14.0852 2.00922L14.3226 1.0378L14.56 0.0663879C14.0994 -0.0461653 13.637 -0.0132401 13.198 0.147216L13.5413 1.08644ZM14.3226 1.0378L14.0852 2.00922L14.4738 2.10416L14.7111 1.13275L14.9485 0.161331L14.56 0.0663879L14.3226 1.0378ZM14.7111 1.13275L14.4738 2.10416L14.8623 2.19911L15.0997 1.22769L15.3371 0.256275L14.9485 0.161331L14.7111 1.13275ZM15.0997 1.22769L14.8623 2.19911C14.9146 2.21188 14.9532 2.23302 14.9987 2.28579L15.7555 1.6321L16.5123 0.978416C16.2014 0.618561 15.8028 0.370092 15.3371 0.256275L15.0997 1.22769ZM15.7555 1.6321L14.9987 2.28579L15.2661 2.59525L16.0228 1.94157L16.7796 1.28788L16.5123 0.978416L15.7555 1.6321ZM16.0228 1.94157L15.2661 2.59525L15.5334 2.90472L16.2901 2.25103L17.0469 1.59735L16.7796 1.28788L16.0228 1.94157ZM16.2901 2.25103L15.5334 2.90472C15.7691 3.17763 16.0359 3.41428 16.3343 3.60937L16.8815 2.77241L17.4288 1.93545C17.295 1.84799 17.1676 1.73706 17.0469 1.59735L16.2901 2.25103ZM16.8815 2.77241L16.3343 3.60937L16.6583 3.82127L17.2056 2.98431L17.7529 2.14736L17.4288 1.93545L16.8815 2.77241ZM17.2056 2.98431L16.6583 3.82127L16.9824 4.03318L17.5297 3.19622L18.0769 2.35926L17.7529 2.14736L17.2056 2.98431ZM17.5297 3.19622L16.9824 4.03318C16.9892 4.0376 16.9919 4.04015 16.992 4.04028C16.9921 4.04034 16.9911 4.0394 16.99 4.03784C16.9889 4.0363 16.989 4.0361 16.9901 4.03838C16.9912 4.04079 16.994 4.04723 16.9973 4.05909L17.9604 3.78999L18.9236 3.52089C18.7889 3.03904 18.5011 2.63662 18.0769 2.35926L17.5297 3.19622ZM17.9604 3.78999L16.9973 4.05909L17.104 4.44096L18.0671 4.17186L19.0303 3.90276L18.9236 3.52089L17.9604 3.78999ZM18.0671 4.17186L17.104 4.44096L17.2107 4.82282L18.1738 4.55373L19.137 4.28463L19.0303 3.90276L18.0671 4.17186ZM18.1738 4.55373L17.2107 4.82282C17.277 5.06 17.3328 5.28482 17.3786 5.49753L18.3562 5.28694L19.3338 5.07635C19.2787 4.82059 19.2129 4.55661 19.137 4.28463L18.1738 4.55373ZM18.3562 5.28694L17.3786 5.49753L17.4543 5.84888L18.4319 5.63829L19.4095 5.4277L19.3338 5.07635L18.3562 5.28694ZM18.4319 5.63829L17.4543 5.84888L17.53 6.20023L18.5076 5.98964L19.4852 5.77905L19.4095 5.4277L18.4319 5.63829ZM18.5076 5.98964L17.53 6.20023C17.5985 6.51813 17.7069 6.8247 17.8524 7.11877L18.7487 6.67541L19.645 6.23205C19.57 6.08023 19.5176 5.92962 19.4852 5.77905L18.5076 5.98964ZM18.7487 6.67541L17.8524 7.11877L18.0178 7.45319L18.9141 7.00983L19.8105 6.56647L19.645 6.23205L18.7487 6.67541ZM18.9141 7.00983L18.0178 7.45319L18.1832 7.78761L19.0795 7.34424L19.9759 6.90088L19.8105 6.56647L18.9141 7.00983ZM19.0795 7.34424L18.1832 7.78761C18.2335 7.88938 18.2678 7.96371 18.2893 8.01453C18.2999 8.03969 18.3051 8.05371 18.3069 8.05861C18.3096 8.06624 18.303 8.04921 18.2954 8.01547L19.2716 7.79816L20.2477 7.58085C20.1992 7.36319 20.0762 7.10378 19.9759 6.90088L19.0795 7.34424ZM19.2716 7.79816L18.2954 8.01547L18.3221 8.13497L19.2982 7.91765L20.2743 7.70034L20.2477 7.58085L19.2716 7.79816ZM19.2982 7.91765L18.3221 8.13497L18.3487 8.25446L19.3248 8.03715L20.3009 7.81984L20.2743 7.70034L19.2982 7.91765ZM19.3248 8.03715L18.3487 8.25446C18.3366 8.20023 18.3321 8.15515 18.3305 8.12369C18.3288 8.09176 18.3296 8.06687 18.3305 8.05104C18.3324 8.02101 18.3358 8.00733 18.334 8.01586C18.3326 8.02282 18.3287 8.04026 18.32 8.07014C18.3115 8.09951 18.2997 8.13678 18.2837 8.18275L19.2283 8.51086L20.173 8.83898C20.2216 8.69906 20.2655 8.55424 20.2939 8.4148C20.3159 8.30644 20.3575 8.07429 20.3009 7.81984L19.3248 8.03715ZM19.2283 8.51086L18.2837 8.18275L18.1607 8.53697L19.1053 8.86508L20.0499 9.19319L20.173 8.83898L19.2283 8.51086Z" fill="var(--stroke-0, white)"/>
</g>
<defs>
<filter id="filter0_d_0_181" x="1.19209e-07" y="0" width="24.3294" height="23.6655" filterUnits="userSpaceOnUse" color-interpolation-filters="sRGB">
<feFlood flood-opacity="0" result="BackgroundImageFix"/>
<feColorMatrix in="SourceAlpha" type="matrix" values="0 0 0 0 0 0 0 0 0 0 0 0 0 0 0 0 0 0 127 0" result="hardAlpha"/>
<feOffset dy="4"/>
<feGaussianBlur stdDeviation="2"/>
<feComposite in2="hardAlpha" operator="out"/>
<feColorMatrix type="matrix" values="0 0 0 0 0 0 0 0 0 0 0 0 0 0 0 0 0 0 0.12 0"/>
<feBlend mode="normal" in2="BackgroundImageFix" result="effect1_dropShadow_0_181"/>
<feBlend mode="normal" in="SourceGraphic" in2="effect1_dropShadow_0_181" result="shape"/>
</filter>
</defs>
</svg>
