<svg preserveAspectRatio="none" width="100%" height="100%" overflow="visible" style="display: block;" viewBox="0 0 54.9409 51.9462" fill="none" xmlns="http://www.w3.org/2000/svg">
<g id="Star 1" filter="url(#filter0_d_0_180)">
<path d="M26.6599 0.956188C27.0602 0.442957 27.8364 0.442956 28.2368 0.956187L36.2998 11.2922C36.4154 11.4404 36.5704 11.553 36.747 11.6171L49.0688 16.0915C49.6806 16.3137 49.9205 17.0519 49.5561 17.5913L42.2175 28.4537C42.1123 28.6094 42.0532 28.7915 42.0467 28.9793L41.599 42.0807C41.5767 42.7312 40.9488 43.1875 40.3232 43.0076L27.7247 39.3849C27.5441 39.333 27.3526 39.333 27.172 39.3849L14.5735 43.0076C13.9479 43.1875 13.3199 42.7312 13.2977 42.0807L12.8499 28.9793C12.8435 28.7915 12.7843 28.6094 12.6791 28.4537L5.3406 17.5913C4.97621 17.0519 5.21606 16.3137 5.8279 16.0915L18.1497 11.6171C18.3263 11.553 18.4812 11.4404 18.5968 11.2922L26.6599 0.956188Z" fill="var(--fill-0, #43C256)"/>
<path d="M28.6934 1.55119L29.4867 0.942371L28.6934 1.55119ZM28.9217 1.84869L28.1284 2.45751L28.9217 1.84869ZM29.3712 2.44925L28.5635 3.03877L29.3712 2.44925ZM29.5924 2.75232L28.7847 3.34184L29.5924 2.75232ZM29.8136 3.05538L30.6214 2.46586L29.8136 3.05538ZM30.3573 3.58242L29.787 4.40381L30.3573 3.58242ZM30.6799 3.80641L31.2503 2.98502L30.6799 3.80641ZM31.0025 4.03039L31.5728 3.209L31.0025 4.03039ZM31.4287 4.64909L30.4615 4.90317L31.4287 4.64909ZM31.6361 5.43852L30.6689 5.6926L31.6361 5.43852ZM32.013 6.09572L32.7058 5.37462L32.013 6.09572ZM32.5594 6.62069L31.8666 7.3418L32.5594 6.62069ZM33.1369 7.12142L32.5204 7.90879L33.1369 7.12142ZM33.7454 7.5979L34.3619 6.81053L33.7454 7.5979ZM34.2091 8.18739L35.1197 7.77411L34.2091 8.18739ZM34.528 8.88988L35.4386 8.4766L34.528 8.88988ZM35.0147 9.46138L35.5729 8.6317L35.0147 9.46138ZM35.3421 9.68163L34.7838 10.5113L35.3421 9.68163ZM35.6694 9.90188L36.2276 9.07219L35.6694 9.90188ZM36.0881 10.5799L35.1075 10.7756L36.0881 10.5799ZM36.2709 11.4954L35.2902 11.6911L36.2709 11.4954ZM36.7542 12.0295L36.5629 13.011L36.7542 12.0295ZM37.1462 12.1059L37.3375 11.1244L37.1462 12.1059ZM37.5381 12.1823L37.3468 13.1638L37.5381 12.1823ZM38.3291 12.2584L38.3299 13.2584L38.3291 12.2584ZM39.1273 12.2578L39.1265 11.2578L39.1273 12.2578ZM39.8916 12.3502L39.6454 13.3195L39.8916 12.3502ZM40.2569 12.443L40.5031 11.4738L40.2569 12.443ZM41.2495 13.0055L40.4284 13.5764L41.2495 13.0055ZM41.5115 13.3825L42.3326 12.8117L41.5115 13.3825ZM41.7736 13.7595L42.5947 13.1886L41.7736 13.7595ZM42.4229 14.1689L42.3393 15.1654L42.4229 14.1689ZM43.1972 14.2339L43.2808 13.2374L43.1972 14.2339ZM43.9316 14.4087L43.5522 15.334L43.9316 14.4087ZM44.2788 14.5512L43.8994 15.4764L44.2788 14.5512ZM44.6261 14.6936L45.0055 13.7683L44.6261 14.6936ZM45.3381 14.9302L45.0879 15.8984L45.3381 14.9302ZM45.7028 15.0245L45.953 14.0563L45.7028 15.0245ZM46.7757 15.366L47.1827 14.4526L46.7757 15.366ZM47.4624 15.6721L47.0554 16.5855L47.4624 15.6721ZM48.1927 15.8826L48.0458 16.8717L48.1927 15.8826ZM48.9665 15.9975L49.1134 15.0084L48.9665 15.9975ZM49.5231 16.4773L50.4509 16.1042L49.5231 16.4773ZM49.8627 17.3217L48.9349 17.6948L49.8627 17.3217ZM49.8342 18.0762L50.693 18.5887L49.8342 18.0762ZM49.636 18.4085L50.4947 18.9209L49.636 18.4085ZM49.4377 18.7407L50.2964 19.2531L49.4377 18.7407ZM49.0022 19.3652L49.7787 19.9954L49.0022 19.3652ZM48.5278 19.9498L47.7513 19.3197L48.5278 19.9498ZM48.0061 20.5025L48.6812 21.2402L48.0061 20.5025ZM47.4371 21.0232L46.762 20.2855L47.4371 21.0232ZM47.0419 21.6613L48.0015 21.9426L47.0419 21.6613ZM46.8204 22.4168L45.8608 22.1354L46.8204 22.4168ZM46.3786 23.0234L45.8099 22.2009L46.3786 23.0234ZM45.7165 23.4812L46.2853 24.3038L45.7165 23.4812ZM45.2976 24.1033L44.3217 23.8851L45.2976 24.1033ZM45.2097 24.4965L46.1856 24.7147L45.2097 24.4965ZM45.1218 24.8897L46.0977 25.1079L45.1218 24.8897ZM44.7072 25.5147L45.2861 26.3301L44.7072 25.5147ZM44.054 25.9785L43.4751 25.1631L44.054 25.9785ZM43.0982 27.143L42.2692 26.5838L43.0982 27.143ZM42.7418 27.7866L41.8268 27.3831L42.7418 27.7866ZM42.5951 28.1193L43.5101 28.5228L42.5951 28.1193ZM42.4484 28.452L43.3634 28.8554L42.4484 28.452ZM42.086 29.1373L41.2329 28.6157L42.086 29.1373ZM41.8704 29.49L42.7236 30.0116L41.8704 29.49ZM41.6548 29.8426L40.8016 29.321L41.6548 29.8426ZM41.6324 30.5771L42.5246 30.1256L41.6324 30.5771ZM42.0188 31.3407L41.1265 31.7922L42.0188 31.3407ZM42.2589 32.0994L43.2513 31.9758L42.2589 32.0994ZM42.3528 32.853L41.3605 32.9766L42.3528 32.853ZM42.3991 33.605L41.3991 33.6033L42.3991 33.605ZM42.3984 33.9802L41.3984 33.9785L42.3984 33.9802ZM42.3978 34.3554L43.3978 34.3572L42.3978 34.3554ZM42.1012 35.0957L41.3243 34.4661L42.1012 35.0957ZM41.8053 35.4608L42.5822 36.0905L41.8053 35.4608ZM41.5094 35.8259L40.7325 35.1963L41.5094 35.8259ZM41.4553 36.5745L40.6094 37.1079L41.4553 36.5745ZM41.6971 36.958L40.8512 37.4914L41.6971 36.958ZM41.9389 37.3415L42.7848 36.8081L41.9389 37.3415ZM42.1699 38.0998L43.1695 38.1287L42.1699 38.0998ZM42.1591 38.4747L41.1595 38.4458L42.1591 38.4747ZM42.1482 38.8495L41.1487 38.8207L42.1482 38.8495ZM41.9977 39.5948L41.062 39.2419L41.9977 39.5948ZM41.7183 40.3357L42.6539 40.6886L41.7183 40.3357ZM41.468 41.0634L40.5127 40.7676L41.468 41.0634ZM41.3574 41.4206L42.3126 41.7163L41.3574 41.4206ZM41.2468 41.7778L40.2915 41.482L41.2468 41.7778ZM40.9931 42.2153L40.5034 41.3434L40.9931 42.2153ZM40.198 42.4727L40.2428 43.4717L40.198 42.4727ZM39.4659 42.5055L39.4212 41.5065L39.4659 42.5055ZM38.6908 42.5874L38.5327 41.5999L38.6908 42.5874ZM37.8727 42.7184L38.0309 43.7058L37.8727 42.7184ZM37.1046 42.6759L36.8167 43.6336L37.1046 42.6759ZM36.3863 42.46L36.6741 41.5023L36.3863 42.46ZM35.6897 42.1683L35.2115 43.0465L35.6897 42.1683ZM35.015 41.8008L35.4933 40.9226L35.015 41.8008ZM34.314 41.5247L34.5602 40.5555L34.314 41.5247ZM33.5867 41.34L33.3406 42.3093L33.5867 41.34ZM32.8943 41.0342L33.4389 40.1955L32.8943 41.0342ZM32.2367 40.6072L31.6921 41.4459L32.2367 40.6072ZM31.5393 40.3184L31.3393 41.2982L31.5393 40.3184ZM30.8022 40.168L31.0022 39.1882L30.8022 40.168ZM30.0363 40.1175L29.9742 39.1194L30.0363 40.1175ZM29.2417 40.1669L29.3038 41.165L29.2417 40.1669ZM28.5127 40.0111L28.9909 39.1328L28.5127 40.0111ZM28.1811 39.8305L27.7029 40.7088L28.1811 39.8305ZM27.8494 39.65L28.3276 38.7717L27.8494 39.65ZM26.3269 39.2629L26.1561 40.2482L26.3269 39.2629ZM25.6412 39.5471L24.8671 38.9141L25.6412 39.5471ZM25.3526 39.9002L26.1267 40.5332L25.3526 39.9002ZM25.0639 40.2532L24.2898 39.6201V39.6201L25.0639 40.2532ZM24.4135 40.7055L24.1488 39.7412L24.4135 40.7055ZM24.0519 40.8048L24.3167 41.7691L24.0519 40.8048ZM23.6903 40.9041L23.955 41.8684L23.6903 40.9041ZM22.9108 40.9073L22.6867 41.8818L22.9108 40.9073ZM22.493 40.8112L22.7171 39.8366L22.493 40.8112ZM22.0751 40.7151L21.851 41.6897L22.0751 40.7151ZM21.3209 40.8062L20.8348 39.9323L21.3209 40.8062ZM20.6482 41.1804L21.1343 42.0543L20.6482 41.1804ZM19.5082 41.287L19.4084 42.282L19.5082 41.287ZM19.1064 41.2467L19.2062 40.2517L19.1064 41.2467ZM18.3863 41.4562L19.0036 42.2429L18.3863 41.4562ZM18.0679 41.706L17.4506 40.9193L18.0679 41.706ZM17.7496 41.9558L17.1322 41.1691L17.7496 41.9558ZM17.0324 42.1758L16.9578 43.173L17.0324 42.1758ZM16.2349 42.1161L16.3095 41.1189L16.2349 42.1161ZM14.8698 42.7989L15.4634 43.6037L14.8698 42.7989ZM14.1764 42.8909L13.8114 43.8219L14.1764 42.8909ZM13.8051 42.7453L14.1702 41.8143L13.8051 42.7453ZM13.4338 42.5997L13.7989 41.6687L13.4338 42.5997ZM13.0213 42.0603L14.0159 41.9563L13.0213 42.0603ZM12.9802 41.6664L11.9856 41.7704L12.9802 41.6664ZM12.939 41.2726L13.9336 41.1686L12.939 41.2726ZM12.9433 40.5019L13.9361 40.6219L12.9433 40.5019ZM13.0344 39.7484L12.0416 39.6285L13.0344 39.7484ZM12.9554 39.0007L12.0074 39.3188L12.9554 39.0007ZM12.7064 38.2587L13.6545 37.9406L12.7064 38.2587ZM12.7273 37.5076L13.6614 37.8647L12.7273 37.5076ZM13.018 36.7472L12.084 36.3901L13.018 36.7472ZM13.2831 35.9877L12.3295 35.6866L13.2831 35.9877ZM13.5227 35.2291L14.4763 35.5302L13.5227 35.2291ZM13.387 34.1081L12.4415 34.4337L13.387 34.1081ZM13.2592 33.7372L14.2047 33.4116L13.2592 33.7372ZM12.9431 32.9976L13.8336 32.5426L12.9431 32.9976ZM12.7547 32.6288L13.6452 32.1738L12.7547 32.6288ZM12.5663 32.26L11.6758 32.715L12.5663 32.26ZM12.5816 31.5091L11.6991 31.0387L12.5816 31.5091ZM12.7853 31.1269L13.6677 31.5973L12.7853 31.1269ZM12.989 30.7447L12.1065 30.2743L12.989 30.7447ZM13.2276 29.973L12.2316 29.8837L13.2276 29.973ZM13.0464 28.4841L13.7924 27.8182L13.0464 28.4841ZM12.4744 27.8434L11.7284 28.5093L12.4744 27.8434ZM11.8978 27.2667L11.2363 28.0166L11.8978 27.2667ZM11.6073 27.0104L12.2688 26.2605V26.2605L11.6073 27.0104ZM11.3168 26.7541L10.6553 27.5041L11.3168 26.7541ZM10.7867 26.2072L10.015 26.8432L10.7867 26.2072ZM10.5471 25.9165L9.77538 26.5524L10.5471 25.9165ZM10.3075 25.6258L11.0792 24.9898L10.3075 25.6258ZM9.98725 24.937L10.9673 24.7384L9.98725 24.937ZM9.90657 24.539L8.9265 24.7376L9.90657 24.539ZM9.82589 24.1409L8.84582 24.3395L9.82589 24.1409ZM9.47046 23.4759L8.77364 24.1932L9.47046 23.4759ZM9.19569 23.209L9.89251 22.4917L9.19569 23.209ZM8.92093 22.942L8.22412 23.6593L8.92093 22.942ZM8.35408 22.4199L7.69609 23.1729L8.35408 22.4199ZM7.76989 21.9094L7.11191 22.6625L7.76989 21.9094ZM7.46418 21.2109L8.46371 21.1802L7.46418 21.2109ZM7.45056 20.7675L6.45103 20.7982L7.45056 20.7675ZM7.06744 19.6687L6.55541 20.5276L7.06744 19.6687ZM6.3557 19.2444L6.86773 18.3854L6.3557 19.2444ZM5.72079 18.7682L6.40813 18.0419L5.72079 18.7682ZM5.16273 18.2401L4.4754 18.9665L5.16273 18.2401ZM5.08338 17.6035L4.20199 17.1311V17.1311L5.08338 17.6035ZM5.48274 16.8584L6.36413 17.3308V17.3308L5.48274 16.8584ZM5.95567 16.2193L5.25742 15.5034L5.95567 16.2193ZM6.50216 15.6862L5.80391 14.9704L6.50216 15.6862ZM7.19501 15.4765L7.32927 14.4856L7.19501 15.4765ZM7.61462 15.5334L7.48036 16.5243L7.61462 15.5334ZM8.03422 15.5902L8.16847 14.5993L8.03422 15.5902ZM8.79888 15.4986L8.40374 14.58L8.79888 15.4986ZM9.14394 15.3502L9.53908 16.2688L9.14394 15.3502ZM9.489 15.2018L9.88414 16.1204L9.489 15.2018ZM10.1679 14.874L9.69454 13.9931L10.1679 14.874ZM10.8355 14.5152L11.3089 15.3961L10.8355 14.5152ZM11.4938 14.1306L12.0283 14.9758L11.4938 14.1306ZM12.1427 13.7202L11.6081 12.8751L12.1427 13.7202ZM12.8332 13.4245L12.5932 12.4537L12.8332 13.4245ZM13.5654 13.2435L13.8054 14.2142L13.5654 13.2435ZM14.2407 12.9058L13.6164 12.1246L14.2407 12.9058ZM14.8591 12.4116L15.4834 13.1928L14.8591 12.4116ZM15.5737 12.1821L15.5304 13.1811L15.5737 12.1821ZM15.9791 12.1997L15.9357 13.1987L15.9791 12.1997ZM16.3844 12.2173L16.4278 11.2182L16.3844 12.2173ZM17.1234 12.0558L17.5964 12.9369L17.1234 12.0558ZM17.7907 11.6976L17.3177 10.8165L17.7907 11.6976ZM18.5025 11.3633L18.882 12.2885L18.5025 11.3633ZM18.8808 11.2082L18.5013 10.283L18.8808 11.2082ZM19.2591 11.053L18.8796 10.1278L19.2591 11.053ZM19.8682 10.6024L20.6562 11.2182L19.8682 10.6024ZM20.0992 10.3069L19.3112 9.69118L20.0992 10.3069ZM20.3301 10.0115L21.118 10.6272L20.3301 10.0115ZM20.7766 9.40857L19.9578 8.83443L20.7766 9.40857ZM21.2077 8.79371L22.0265 9.36785L21.2077 8.79371ZM22.6322 6.10011L22.1575 5.21997L22.6322 6.10011ZM23.1456 5.54933L24.0646 5.94359L23.1456 5.54933ZM23.2984 5.19299L24.2175 5.58724L23.2984 5.19299ZM23.4513 4.83664L22.5323 4.44238L23.4513 4.83664ZM23.9336 4.26164L23.3806 3.42848L23.9336 4.26164ZM24.263 4.043L24.816 4.87616L24.263 4.043ZM24.5924 3.82436L24.0394 2.99119L24.5924 3.82436ZM25.0018 3.19249L24.02 3.00247L25.0018 3.19249ZM25.0818 2.77928L26.0635 2.9693L25.0818 2.77928ZM25.1617 2.36606L24.18 2.17604L25.1617 2.36606ZM25.6638 1.80647L25.9914 2.75126L25.6638 1.80647ZM26.0858 1.66009L25.7581 0.715303L26.0858 1.66009ZM26.5078 1.51372L26.1802 0.568928L26.5078 1.51372ZM27.1065 1.31706L26.8327 0.355278L27.1065 1.31706ZM27.4597 1.21649L27.7336 2.17827L27.4597 1.21649ZM27.7865 1.1137L27.4563 0.169771L27.7865 1.1137ZM28.0867 1.00869L28.4168 1.95262L28.0867 1.00869ZM28.4651 1.25369L29.2584 0.644871L28.4651 1.25369ZM28.6934 1.55119L27.9001 2.16001L28.1284 2.45751L28.9217 1.84869L29.7151 1.23987L29.4867 0.942371L28.6934 1.55119ZM28.9217 1.84869L28.1284 2.45751C28.2757 2.64946 28.4208 2.84322 28.5635 3.03877L29.3712 2.44925L30.179 1.85973C30.0268 1.6512 29.8722 1.44458 29.7151 1.23987L28.9217 1.84869ZM29.3712 2.44925L28.5635 3.03877L28.7847 3.34184L29.5924 2.75232L30.4002 2.1628L30.179 1.85973L29.3712 2.44925ZM29.5924 2.75232L28.7847 3.34184L29.0059 3.6449L29.8136 3.05538L30.6214 2.46586L30.4002 2.1628L29.5924 2.75232ZM29.8136 3.05538L29.0059 3.6449C29.222 3.94105 29.4848 4.19395 29.787 4.40381L30.3573 3.58242L30.9277 2.76104C30.7999 2.67225 30.7001 2.57379 30.6214 2.46586L29.8136 3.05538ZM30.3573 3.58242L29.787 4.40381L30.1095 4.62779L30.6799 3.80641L31.2503 2.98502L30.9277 2.76104L30.3573 3.58242ZM30.6799 3.80641L30.1095 4.62779L30.4321 4.85178L31.0025 4.03039L31.5728 3.209L31.2503 2.98502L30.6799 3.80641ZM31.0025 4.03039L30.4321 4.85178C30.4394 4.85688 30.4431 4.86032 30.4445 4.86171C30.4458 4.86304 30.4464 4.86378 30.4468 4.86439C30.4473 4.86504 30.4489 4.86745 30.4513 4.87275C30.4537 4.87817 30.4575 4.88788 30.4615 4.90317L31.4287 4.64909L32.3959 4.39501C32.2688 3.9114 31.9917 3.49985 31.5728 3.209L31.0025 4.03039ZM31.4287 4.64909L30.4615 4.90317L30.5652 5.29789L31.5324 5.04381L32.4996 4.78972L32.3959 4.39501L31.4287 4.64909ZM31.5324 5.04381L30.5652 5.29789L30.6689 5.6926L31.6361 5.43852L32.6033 5.18444L32.4996 4.78972L31.5324 5.04381ZM31.6361 5.43852L30.6689 5.6926C30.781 6.11943 30.9951 6.50452 31.3202 6.81683L32.013 6.09572L32.7058 5.37462C32.6666 5.33694 32.6294 5.2839 32.6033 5.18444L31.6361 5.43852ZM32.013 6.09572L31.3202 6.81683L31.5934 7.07931L32.2862 6.35821L32.979 5.6371L32.7058 5.37462L32.013 6.09572ZM32.2862 6.35821L31.5934 7.07931L31.8666 7.3418L32.5594 6.62069L33.2522 5.89958L32.979 5.6371L32.2862 6.35821ZM32.5594 6.62069L31.8666 7.3418C32.0735 7.54061 32.2915 7.72959 32.5204 7.90879L33.1369 7.12142L33.7534 6.33405C33.5765 6.19559 33.4096 6.05075 33.2522 5.89958L32.5594 6.62069ZM33.1369 7.12142L32.5204 7.90879L32.8247 8.14703L33.4411 7.35966L34.0576 6.57229L33.7534 6.33405L33.1369 7.12142ZM33.4411 7.35966L32.8247 8.14703L33.1289 8.38527L33.7454 7.5979L34.3619 6.81053L34.0576 6.57229L33.4411 7.35966ZM33.7454 7.5979L33.1289 8.38527C33.2053 8.44507 33.2589 8.51333 33.2985 8.60067L34.2091 8.18739L35.1197 7.77411C34.9468 7.39311 34.6912 7.06838 34.3619 6.81053L33.7454 7.5979ZM34.2091 8.18739L33.2985 8.60067L33.4579 8.95191L34.3685 8.53863L35.2791 8.12536L35.1197 7.77411L34.2091 8.18739ZM34.3685 8.53863L33.4579 8.95191L33.6173 9.30316L34.528 8.88988L35.4386 8.4766L35.2791 8.12536L34.3685 8.53863ZM34.528 8.88988L33.6173 9.30316C33.802 9.71012 34.0882 10.0433 34.4565 10.2911L35.0147 9.46138L35.5729 8.6317C35.5048 8.58584 35.4664 8.53798 35.4386 8.4766L34.528 8.88988ZM35.0147 9.46138L34.4565 10.2911L34.7838 10.5113L35.3421 9.68163L35.9003 8.85195L35.5729 8.6317L35.0147 9.46138ZM35.3421 9.68163L34.7838 10.5113L35.1112 10.7316L35.6694 9.90188L36.2276 9.07219L35.9003 8.85195L35.3421 9.68163ZM35.6694 9.90188L35.1112 10.7316C35.1076 10.7292 35.1024 10.725 35.0968 10.7193C35.0913 10.7135 35.0881 10.7088 35.0869 10.707C35.0844 10.7029 35.0964 10.7202 35.1075 10.7756L36.0881 10.5799L37.0688 10.3841C36.9663 9.87105 36.7044 9.39295 36.2276 9.07219L35.6694 9.90188ZM36.0881 10.5799L35.1075 10.7756L35.1989 11.2334L36.1795 11.0376L37.1602 10.8418L37.0688 10.3841L36.0881 10.5799ZM36.1795 11.0376L35.1989 11.2334L35.2902 11.6911L36.2709 11.4954L37.2515 11.2996L37.1602 10.8418L36.1795 11.0376ZM36.2709 11.4954L35.2902 11.6911C35.3458 11.9695 35.4633 12.2717 35.6959 12.5287C35.9372 12.7954 36.2444 12.9489 36.5629 13.011L36.7542 12.0295L36.9455 11.048C37.0027 11.0591 37.0987 11.0981 37.1789 11.1868C37.2504 11.2658 37.2569 11.3264 37.2515 11.2996L36.2709 11.4954ZM36.7542 12.0295L36.5629 13.011L36.9549 13.0874L37.1462 12.1059L37.3375 11.1244L36.9455 11.048L36.7542 12.0295ZM37.1462 12.1059L36.9549 13.0874L37.3468 13.1638L37.5381 12.1823L37.7294 11.2007L37.3375 11.1244L37.1462 12.1059ZM37.5381 12.1823L37.3468 13.1638C37.6713 13.2271 37.9993 13.2586 38.3299 13.2584L38.3291 12.2584L38.3284 11.2584C38.1268 11.2585 37.9275 11.2393 37.7294 11.2007L37.5381 12.1823ZM38.3291 12.2584L38.3299 13.2584L38.729 13.2581L38.7282 12.2581L38.7274 11.2581L38.3284 11.2584L38.3291 12.2584ZM38.7282 12.2581L38.729 13.2581L39.128 13.2578L39.1273 12.2578L39.1265 11.2578L38.7274 11.2581L38.7282 12.2581ZM39.1273 12.2578L39.128 13.2578C39.3157 13.2576 39.4872 13.2793 39.6454 13.3195L39.8916 12.3502L40.1378 11.381C39.809 11.2975 39.4709 11.2575 39.1265 11.2578L39.1273 12.2578ZM39.8916 12.3502L39.6454 13.3195L40.0107 13.4122L40.2569 12.443L40.5031 11.4738L40.1378 11.381L39.8916 12.3502ZM40.2569 12.443L40.0107 13.4122L40.3759 13.505L40.6221 12.5358L40.8683 11.5666L40.5031 11.4738L40.2569 12.443ZM40.6221 12.5358L40.3759 13.505C40.3718 13.504 40.3674 13.5024 40.3637 13.5006C40.36 13.4988 40.3595 13.498 40.3622 13.5001C40.3678 13.5043 40.3919 13.5239 40.4284 13.5764L41.2495 13.0055L42.0705 12.4347C41.7897 12.0307 41.3933 11.6999 40.8683 11.5666L40.6221 12.5358ZM41.2495 13.0055L40.4284 13.5764L40.6905 13.9533L41.5115 13.3825L42.3326 12.8117L42.0705 12.4347L41.2495 13.0055ZM41.5115 13.3825L40.6905 13.9533L40.9525 14.3303L41.7736 13.7595L42.5947 13.1886L42.3326 12.8117L41.5115 13.3825ZM41.7736 13.7595L40.9525 14.3303C41.2631 14.777 41.7291 15.1142 42.3393 15.1654L42.4229 14.1689L42.5064 13.1724C42.5182 13.1734 42.5346 13.1762 42.5532 13.1824C42.572 13.1887 42.588 13.1967 42.6004 13.2045C42.6255 13.2203 42.6203 13.2255 42.5947 13.1886L41.7736 13.7595ZM42.4229 14.1689L42.3393 15.1654L42.7264 15.1979L42.81 14.2014L42.8936 13.2049L42.5064 13.1724L42.4229 14.1689ZM42.81 14.2014L42.7264 15.1979L43.1136 15.2304L43.1972 14.2339L43.2808 13.2374L42.8936 13.2049L42.81 14.2014ZM43.1972 14.2339L43.1136 15.2304C43.2737 15.2438 43.4184 15.2791 43.5522 15.334L43.9316 14.4087L44.311 13.4835C43.9818 13.3485 43.637 13.2672 43.2808 13.2374L43.1972 14.2339ZM43.9316 14.4087L43.5522 15.334L43.8994 15.4764L44.2788 14.5512L44.6583 13.6259L44.311 13.4835L43.9316 14.4087ZM44.2788 14.5512L43.8994 15.4764L44.2466 15.6188L44.6261 14.6936L45.0055 13.7683L44.6583 13.6259L44.2788 14.5512ZM44.6261 14.6936L44.2466 15.6188C44.5204 15.731 44.8009 15.8243 45.0879 15.8984L45.3381 14.9302L45.5883 13.962C45.389 13.9105 45.1948 13.846 45.0055 13.7683L44.6261 14.6936ZM45.3381 14.9302L45.0879 15.8984L45.4526 15.9927L45.7028 15.0245L45.953 14.0563L45.5883 13.962L45.3381 14.9302ZM45.7028 15.0245L45.4526 15.9927L45.8173 16.0869L46.0675 15.1187L46.3177 14.1506L45.953 14.0563L45.7028 15.0245ZM46.0675 15.1187L45.8173 16.0869C46.0069 16.1359 46.1905 16.2 46.3686 16.2794L46.7757 15.366L47.1827 14.4526C46.903 14.328 46.6145 14.2272 46.3177 14.1506L46.0675 15.1187ZM46.7757 15.366L46.3686 16.2794L46.712 16.4325L47.119 15.5191L47.5261 14.6057L47.1827 14.4526L46.7757 15.366ZM47.119 15.5191L46.712 16.4325L47.0554 16.5855L47.4624 15.6721L47.8695 14.7587L47.5261 14.6057L47.119 15.5191ZM47.4624 15.6721L47.0554 16.5855C47.3705 16.7259 47.7017 16.8206 48.0458 16.8717L48.1927 15.8826L48.3396 14.8934C48.1678 14.8679 48.0122 14.8223 47.8695 14.7587L47.4624 15.6721ZM48.1927 15.8826L48.0458 16.8717L48.4327 16.9292L48.5796 15.9401L48.7265 14.9509L48.3396 14.8934L48.1927 15.8826ZM48.5796 15.9401L48.4327 16.9292L48.8195 16.9867L48.9665 15.9975L49.1134 15.0084L48.7265 14.9509L48.5796 15.9401ZM48.9665 15.9975L48.8195 16.9867C48.8005 16.9839 48.7719 16.977 48.7383 16.962C48.7043 16.9468 48.6729 16.9266 48.6463 16.9037C48.5925 16.8574 48.5844 16.8231 48.5953 16.8503L49.5231 16.4773L50.4509 16.1042C50.2311 15.5573 49.7859 15.1083 49.1134 15.0084L48.9665 15.9975ZM49.5231 16.4773L48.5953 16.8503L48.7651 17.2726L49.6929 16.8995L50.6207 16.5264L50.4509 16.1042L49.5231 16.4773ZM49.6929 16.8995L48.7651 17.2726L48.9349 17.6948L49.8627 17.3217L50.7905 16.9487L50.6207 16.5264L49.6929 16.8995ZM49.8627 17.3217L48.9349 17.6948C48.9496 17.7315 48.9397 17.7242 48.9412 17.6838C48.9419 17.6638 48.9454 17.641 48.9524 17.6176C48.9594 17.5942 48.9682 17.576 48.9755 17.5638L49.8342 18.0762L50.693 18.5887C51.0145 18.0498 50.997 17.4623 50.7905 16.9487L49.8627 17.3217ZM49.8342 18.0762L48.9755 17.5638L48.7773 17.896L49.636 18.4085L50.4947 18.9209L50.693 18.5887L49.8342 18.0762ZM49.636 18.4085L48.7773 17.896L48.579 18.2282L49.4377 18.7407L50.2964 19.2531L50.4947 18.9209L49.636 18.4085ZM49.4377 18.7407L48.579 18.2282C48.4707 18.4097 48.3529 18.5784 48.2258 18.7351L49.0022 19.3652L49.7787 19.9954C49.9679 19.7623 50.1404 19.5146 50.2964 19.2531L49.4377 18.7407ZM49.0022 19.3652L48.2258 18.7351L47.9885 19.0274L48.765 19.6575L49.5415 20.2877L49.7787 19.9954L49.0022 19.3652ZM48.765 19.6575L47.9885 19.0274L47.7513 19.3197L48.5278 19.9498L49.3043 20.58L49.5415 20.2877L48.765 19.6575ZM48.5278 19.9498L47.7513 19.3197C47.625 19.4753 47.4851 19.6237 47.331 19.7648L48.0061 20.5025L48.6812 21.2402C48.9064 21.0341 49.1143 20.814 49.3043 20.58L48.5278 19.9498ZM48.0061 20.5025L47.331 19.7648L47.0465 20.0251L47.7216 20.7628L48.3968 21.5005L48.6812 21.2402L48.0061 20.5025ZM47.7216 20.7628L47.0465 20.0251L46.762 20.2855L47.4371 21.0232L48.1123 21.7609L48.3968 21.5005L47.7216 20.7628ZM47.4371 21.0232L46.762 20.2855C46.4347 20.585 46.2064 20.9567 46.0823 21.38L47.0419 21.6613L48.0015 21.9426C48.0251 21.8622 48.0602 21.8085 48.1123 21.7609L47.4371 21.0232ZM47.0419 21.6613L46.0823 21.38L45.9715 21.7577L46.9312 22.039L47.8908 22.3204L48.0015 21.9426L47.0419 21.6613ZM46.9312 22.039L45.9715 21.7577L45.8608 22.1354L46.8204 22.4168L47.78 22.6981L47.8908 22.3204L46.9312 22.039ZM46.8204 22.4168L45.8608 22.1354C45.8546 22.1564 45.8489 22.165 45.8462 22.1686C45.8434 22.1725 45.8345 22.1839 45.8099 22.2009L46.3786 23.0234L46.9474 23.8459C47.3519 23.5662 47.6402 23.1751 47.78 22.6981L46.8204 22.4168ZM46.3786 23.0234L45.8099 22.2009L45.4788 22.4298L46.0476 23.2523L46.6163 24.0748L46.9474 23.8459L46.3786 23.0234ZM46.0476 23.2523L45.4788 22.4298L45.1478 22.6587L45.7165 23.4812L46.2853 24.3038L46.6163 24.0748L46.0476 23.2523ZM45.7165 23.4812L45.1478 22.6587C44.72 22.9546 44.4351 23.3778 44.3217 23.8851L45.2976 24.1033L46.2735 24.3215C46.2758 24.3113 46.2777 24.3066 46.278 24.306C46.2782 24.3055 46.2775 24.3072 46.2757 24.3098C46.274 24.3124 46.2727 24.3137 46.2729 24.3134C46.2733 24.3131 46.2768 24.3096 46.2853 24.3038L45.7165 23.4812ZM45.2976 24.1033L44.3217 23.8851L44.2338 24.2783L45.2097 24.4965L46.1856 24.7147L46.2735 24.3215L45.2976 24.1033ZM45.2097 24.4965L44.2338 24.2783L44.1459 24.6715L45.1218 24.8897L46.0977 25.1079L46.1856 24.7147L45.2097 24.4965ZM45.1218 24.8897L44.1459 24.6715C44.1434 24.6827 44.1411 24.6885 44.1404 24.6903C44.1397 24.692 44.1397 24.6914 44.1408 24.6898C44.1419 24.6882 44.1425 24.6877 44.1417 24.6885C44.1407 24.6895 44.1369 24.6933 44.1284 24.6993L44.7072 25.5147L45.2861 26.3301C45.7068 26.0315 45.9855 25.6098 46.0977 25.1079L45.1218 24.8897ZM44.7072 25.5147L44.1284 24.6993L43.8017 24.9312L44.3806 25.7466L44.9595 26.562L45.2861 26.3301L44.7072 25.5147ZM44.3806 25.7466L43.8017 24.9312L43.4751 25.1631L44.054 25.9785L44.6328 26.7939L44.9595 26.562L44.3806 25.7466ZM44.054 25.9785L43.4751 25.1631C43.1659 25.3825 42.9002 25.6484 42.6886 25.962L43.5176 26.5213L44.3466 27.0805C44.4147 26.9796 44.5064 26.8836 44.6328 26.7939L44.054 25.9785ZM43.5176 26.5213L42.6886 25.962L42.4789 26.2729L43.3079 26.8321L44.1369 27.3914L44.3466 27.0805L43.5176 26.5213ZM43.3079 26.8321L42.4789 26.2729L42.2692 26.5838L43.0982 27.143L43.9272 27.7022L44.1369 27.3914L43.3079 26.8321ZM43.0982 27.143L42.2692 26.5838C42.0972 26.8388 41.9493 27.1053 41.8268 27.3831L42.7418 27.7866L43.6568 28.1901C43.7298 28.0243 43.8196 27.8618 43.9272 27.7022L43.0982 27.143ZM42.7418 27.7866L41.8268 27.3831L41.6801 27.7158L42.5951 28.1193L43.5101 28.5228L43.6568 28.1901L42.7418 27.7866ZM42.5951 28.1193L41.6801 27.7158L41.5334 28.0485L42.4484 28.452L43.3634 28.8554L43.5101 28.5228L42.5951 28.1193ZM42.4484 28.452L41.5334 28.0485C41.4558 28.2245 41.3565 28.4135 41.2329 28.6157L42.086 29.1373L42.9392 29.659C43.1031 29.3909 43.2454 29.123 43.3634 28.8554L42.4484 28.452ZM42.086 29.1373L41.2329 28.6157L41.0173 28.9683L41.8704 29.49L42.7236 30.0116L42.9392 29.659L42.086 29.1373ZM41.8704 29.49L41.0173 28.9683L40.8016 29.321L41.6548 29.8426L42.5079 30.3643L42.7236 30.0116L41.8704 29.49ZM41.6548 29.8426L40.8016 29.321C40.4695 29.8642 40.4615 30.4781 40.7401 31.0286L41.6324 30.5771L42.5246 30.1256C42.5232 30.1228 42.543 30.1627 42.5409 30.2331C42.5387 30.3052 42.5151 30.3525 42.5079 30.3643L41.6548 29.8426ZM41.6324 30.5771L40.7401 31.0286L40.9333 31.4104L41.8256 30.9589L42.7178 30.5074L42.5246 30.1256L41.6324 30.5771ZM41.8256 30.9589L40.9333 31.4104L41.1265 31.7922L42.0188 31.3407L42.9111 30.8892L42.7178 30.5074L41.8256 30.9589ZM42.0188 31.3407L41.1265 31.7922C41.2099 31.957 41.2512 32.0995 41.2666 32.223L42.2589 32.0994L43.2513 31.9758C43.2041 31.5968 43.0853 31.2336 42.9111 30.8892L42.0188 31.3407ZM42.2589 32.0994L41.2666 32.223L41.3135 32.5998L42.3059 32.4762L43.2982 32.3526L43.2513 31.9758L42.2589 32.0994ZM42.3059 32.4762L41.3135 32.5998L41.3605 32.9766L42.3528 32.853L43.3451 32.7294L43.2982 32.3526L42.3059 32.4762ZM42.3528 32.853L41.3605 32.9766C41.3866 33.1868 41.3995 33.3956 41.3991 33.6033L42.3991 33.605L43.3991 33.6068C43.3996 33.3142 43.3815 33.0217 43.3451 32.7294L42.3528 32.853ZM42.3991 33.605L41.3991 33.6033L41.3984 33.9785L42.3984 33.9802L43.3984 33.982L43.3991 33.6068L42.3991 33.605ZM42.3984 33.9802L41.3984 33.9785L41.3978 34.3537L42.3978 34.3554L43.3978 34.3572L43.3984 33.982L42.3984 33.9802ZM42.3978 34.3554L41.3978 34.3537C41.3978 34.3441 41.4003 34.3431 41.395 34.3562C41.3888 34.3717 41.3708 34.4087 41.3243 34.4661L42.1012 35.0957L42.8781 35.7254C43.1821 35.3503 43.3969 34.8888 43.3978 34.3572L42.3978 34.3554ZM42.1012 35.0957L41.3243 34.4661L41.0284 34.8312L41.8053 35.4608L42.5822 36.0905L42.8781 35.7254L42.1012 35.0957ZM41.8053 35.4608L41.0284 34.8312L40.7325 35.1963L41.5094 35.8259L42.2862 36.4556L42.5822 36.0905L41.8053 35.4608ZM41.5094 35.8259L40.7325 35.1963C40.5377 35.4366 40.3776 35.7485 40.3505 36.1236C40.3231 36.5024 40.4392 36.8381 40.6094 37.1079L41.4553 36.5745L42.3011 36.0411C42.3101 36.0553 42.3546 36.1384 42.3453 36.2677C42.3362 36.3933 42.2837 36.4587 42.2862 36.4556L41.5094 35.8259ZM41.4553 36.5745L40.6094 37.1079L40.8512 37.4914L41.6971 36.958L42.5429 36.4246L42.3011 36.0411L41.4553 36.5745ZM41.6971 36.958L40.8512 37.4914L41.093 37.8749L41.9389 37.3415L42.7848 36.8081L42.5429 36.4246L41.6971 36.958ZM41.9389 37.3415L41.093 37.8749C41.1707 37.9981 41.1707 38.0578 41.1703 38.071L42.1699 38.0998L43.1695 38.1287C43.1835 37.642 43.0295 37.1962 42.7848 36.8081L41.9389 37.3415ZM42.1699 38.0998L41.1703 38.071L41.1595 38.4458L42.1591 38.4747L43.1586 38.5036L43.1695 38.1287L42.1699 38.0998ZM42.1591 38.4747L41.1595 38.4458L41.1487 38.8207L42.1482 38.8495L43.1478 38.8784L43.1586 38.5036L42.1591 38.4747ZM42.1482 38.8495L41.1487 38.8207C41.1448 38.9537 41.1182 39.0929 41.062 39.2419L41.9977 39.5948L42.9334 39.9477C43.0634 39.6028 43.1372 39.2452 43.1478 38.8784L42.1482 38.8495ZM41.9977 39.5948L41.062 39.2419L40.9223 39.6124L41.858 39.9653L42.7937 40.3181L42.9334 39.9477L41.9977 39.5948ZM41.858 39.9653L40.9223 39.6124L40.7826 39.9828L41.7183 40.3357L42.6539 40.6886L42.7937 40.3181L41.858 39.9653ZM41.7183 40.3357L40.7826 39.9828C40.6828 40.2475 40.5927 40.5091 40.5127 40.7676L41.468 41.0634L42.4232 41.3591C42.4907 41.1413 42.5675 40.9178 42.6539 40.6886L41.7183 40.3357ZM41.468 41.0634L40.5127 40.7676L40.4021 41.1248L41.3574 41.4206L42.3126 41.7163L42.4232 41.3591L41.468 41.0634ZM41.3574 41.4206L40.4021 41.1248L40.2915 41.482L41.2468 41.7778L42.202 42.0735L42.3126 41.7163L41.3574 41.4206ZM41.2468 41.7778L40.2915 41.482C40.2674 41.56 40.2542 41.5792 40.2629 41.5642C40.2682 41.555 40.2859 41.5259 40.3201 41.488C40.3544 41.45 40.4138 41.3937 40.5034 41.3434L40.9931 42.2153L41.4829 43.0871C41.7492 42.9375 41.9058 42.718 41.9932 42.5672C42.0864 42.4064 42.1524 42.2337 42.202 42.0735L41.2468 41.7778ZM40.9931 42.2153L40.5034 41.3434L40.3604 41.4238L40.8501 42.2956L41.3399 43.1675L41.4829 43.0871L40.9931 42.2153ZM40.8501 42.2956L40.3604 41.4238L40.2173 41.5041L40.7071 42.376L41.1969 43.2478L41.3399 43.1675L40.8501 42.2956ZM40.7071 42.376L40.2173 41.5041C40.2645 41.4776 40.2999 41.4652 40.3137 41.4608C40.3284 41.456 40.3323 41.4559 40.3217 41.4579C40.3115 41.4598 40.2927 41.4628 40.2633 41.4659C40.2343 41.4689 40.1979 41.4717 40.1533 41.4737L40.198 42.4727L40.2428 43.4717C40.4957 43.4604 40.8777 43.4271 41.1969 43.2478L40.7071 42.376ZM40.198 42.4727L40.1533 41.4737L39.7872 41.4901L39.832 42.4891L39.8767 43.4881L40.2428 43.4717L40.198 42.4727ZM39.832 42.4891L39.7872 41.4901L39.4212 41.5065L39.4659 42.5055L39.5106 43.5045L39.8767 43.4881L39.832 42.4891ZM39.4659 42.5055L39.4212 41.5065C39.1346 41.5193 38.8382 41.551 38.5327 41.5999L38.6908 42.5874L38.8489 43.5748C39.0888 43.5364 39.3091 43.5135 39.5106 43.5045L39.4659 42.5055ZM38.6908 42.5874L38.5327 41.5999L38.1236 41.6655L38.2818 42.6529L38.4399 43.6403L38.8489 43.5748L38.6908 42.5874ZM38.2818 42.6529L38.1236 41.6655L37.7146 41.731L37.8727 42.7184L38.0309 43.7058L38.4399 43.6403L38.2818 42.6529ZM37.8727 42.7184L37.7146 41.731C37.5752 41.7533 37.4728 41.7424 37.3924 41.7182L37.1046 42.6759L36.8167 43.6336C37.2152 43.7534 37.6249 43.7708 38.0309 43.7058L37.8727 42.7184ZM37.1046 42.6759L37.3924 41.7182L37.0333 41.6103L36.7454 42.5679L36.4575 43.5256L36.8167 43.6336L37.1046 42.6759ZM36.7454 42.5679L37.0333 41.6103L36.6741 41.5023L36.3863 42.46L36.0984 43.4176L36.4575 43.5256L36.7454 42.5679ZM36.3863 42.46L36.6741 41.5023C36.5023 41.4507 36.3338 41.3804 36.168 41.2901L35.6897 42.1683L35.2115 43.0465C35.4955 43.2012 35.7913 43.3253 36.0984 43.4176L36.3863 42.46ZM35.6897 42.1683L36.168 41.2901L35.8307 41.1063L35.3524 41.9846L34.8741 42.8628L35.2115 43.0465L35.6897 42.1683ZM35.3524 41.9846L35.8307 41.1063L35.4933 40.9226L35.015 41.8008L34.5367 42.679L34.8741 42.8628L35.3524 41.9846ZM35.015 41.8008L35.4933 40.9226C35.1969 40.7612 34.8854 40.6381 34.5602 40.5555L34.314 41.5247L34.0679 42.494C34.2275 42.5345 34.3833 42.5955 34.5367 42.679L35.015 41.8008ZM34.314 41.5247L34.5602 40.5555L34.1965 40.4632L33.9504 41.4324L33.7042 42.4016L34.0679 42.494L34.314 41.5247ZM33.9504 41.4324L34.1965 40.4632L33.8329 40.3708L33.5867 41.34L33.3406 42.3093L33.7042 42.4016L33.9504 41.4324ZM33.5867 41.34L33.8329 40.3708C33.7011 40.3373 33.5706 40.281 33.4389 40.1955L32.8943 41.0342L32.3497 41.8729C32.6564 42.0721 32.9875 42.2196 33.3406 42.3093L33.5867 41.34ZM32.8943 41.0342L33.4389 40.1955L33.1101 39.982L32.5655 40.8207L32.0209 41.6594L32.3497 41.8729L32.8943 41.0342ZM32.5655 40.8207L33.1101 39.982L32.7813 39.7685L32.2367 40.6072L31.6921 41.4459L32.0209 41.6594L32.5655 40.8207ZM32.2367 40.6072L32.7813 39.7685C32.4616 39.5609 32.1129 39.4149 31.7393 39.3386L31.5393 40.3184L31.3393 41.2982C31.4572 41.3223 31.5734 41.3688 31.6921 41.4459L32.2367 40.6072ZM31.5393 40.3184L31.7393 39.3386L31.3707 39.2634L31.1708 40.2432L30.9708 41.223L31.3393 41.2982L31.5393 40.3184ZM31.1708 40.2432L31.3707 39.2634L31.0022 39.1882L30.8022 40.168L30.6022 41.1478L30.9708 41.223L31.1708 40.2432ZM30.8022 40.168L31.0022 39.1882C30.6654 39.1194 30.3218 39.0978 29.9742 39.1194L30.0363 40.1175L30.0985 41.1155C30.2806 41.1042 30.4476 41.1162 30.6022 41.1478L30.8022 40.168ZM30.0363 40.1175L29.9742 39.1194L29.5769 39.1441L29.639 40.1422L29.7011 41.1403L30.0985 41.1155L30.0363 40.1175ZM29.639 40.1422L29.5769 39.1441L29.1796 39.1689L29.2417 40.1669L29.3038 41.165L29.7011 41.1403L29.639 40.1422ZM29.2417 40.1669L29.1796 39.1689C29.0918 39.1743 29.0376 39.1583 28.9909 39.1328L28.5127 40.0111L28.0346 40.8894C28.4301 41.1047 28.8618 41.1925 29.3038 41.165L29.2417 40.1669ZM28.5127 40.0111L28.9909 39.1328L28.6593 38.9523L28.1811 39.8305L27.7029 40.7088L28.0346 40.8894L28.5127 40.0111ZM28.1811 39.8305L28.6593 38.9523L28.3276 38.7717L27.8494 39.65L27.3713 40.5282L27.7029 40.7088L28.1811 39.8305ZM27.8494 39.65L28.3276 38.7717C28.0043 38.5957 27.6567 38.4786 27.2916 38.4153L27.1208 39.4006L26.95 40.3859C27.1142 40.4144 27.2523 40.4635 27.3713 40.5282L27.8494 39.65ZM27.1208 39.4006L27.2916 38.4153L26.8947 38.3465L26.7238 39.3318L26.553 40.3171L26.95 40.3859L27.1208 39.4006ZM26.7238 39.3318L26.8947 38.3465L26.4977 38.2776L26.3269 39.2629L26.1561 40.2482L26.553 40.3171L26.7238 39.3318ZM26.3269 39.2629L26.4977 38.2776C25.8244 38.1609 25.2516 38.444 24.8671 38.9141L25.6412 39.5471L26.4154 40.1802C26.4308 40.1613 26.4091 40.1947 26.3399 40.2234C26.2642 40.2547 26.1938 40.2548 26.1561 40.2482L26.3269 39.2629ZM25.6412 39.5471L24.8671 38.9141L24.5784 39.2671L25.3526 39.9002L26.1267 40.5332L26.4154 40.1802L25.6412 39.5471ZM25.3526 39.9002L24.5784 39.2671L24.2898 39.6201L25.0639 40.2532L25.838 40.8862L26.1267 40.5332L25.3526 39.9002ZM25.0639 40.2532L24.2898 39.6201C24.1997 39.7302 24.15 39.7409 24.1488 39.7412L24.4135 40.7055L24.6783 41.6698C25.1593 41.5377 25.5431 41.2469 25.838 40.8862L25.0639 40.2532ZM24.4135 40.7055L24.1488 39.7412L23.7871 39.8405L24.0519 40.8048L24.3167 41.7691L24.6783 41.6698L24.4135 40.7055ZM24.0519 40.8048L23.7871 39.8405L23.4255 39.9398L23.6903 40.9041L23.955 41.8684L24.3167 41.7691L24.0519 40.8048ZM23.6903 40.9041L23.4255 39.9398C23.3656 39.9562 23.2755 39.9651 23.1349 39.9327L22.9108 40.9073L22.6867 41.8818C23.1032 41.9776 23.5327 41.9843 23.955 41.8684L23.6903 40.9041ZM22.9108 40.9073L23.1349 39.9327L22.7171 39.8366L22.493 40.8112L22.2688 41.7858L22.6867 41.8818L22.9108 40.9073ZM22.493 40.8112L22.7171 39.8366L22.2993 39.7405L22.0751 40.7151L21.851 41.6897L22.2688 41.7858L22.493 40.8112ZM22.0751 40.7151L22.2993 39.7405C21.8092 39.6278 21.3003 39.6733 20.8348 39.9323L21.3209 40.8062L21.8071 41.68C21.8085 41.6792 21.8074 41.68 21.8042 41.681C21.8011 41.6821 21.7985 41.6825 21.7975 41.6826C21.7946 41.683 21.8101 41.6803 21.851 41.6897L22.0751 40.7151ZM21.3209 40.8062L20.8348 39.9323L20.4984 40.1194L20.9845 40.9933L21.4707 41.8672L21.8071 41.68L21.3209 40.8062ZM20.9845 40.9933L20.4984 40.1194L20.162 40.3066L20.6482 41.1804L21.1343 42.0543L21.4707 41.8672L20.9845 40.9933ZM20.6482 41.1804L20.162 40.3066C20.1252 40.327 20.0851 40.3398 20.0098 40.3323L19.91 41.3273L19.8102 42.3223C20.2706 42.3685 20.7226 42.2833 21.1343 42.0543L20.6482 41.1804ZM19.91 41.3273L20.0098 40.3323L19.608 40.292L19.5082 41.287L19.4084 42.282L19.8102 42.3223L19.91 41.3273ZM19.5082 41.287L19.608 40.292L19.2062 40.2517L19.1064 41.2467L19.0067 42.2417L19.4084 42.282L19.5082 41.287ZM19.1064 41.2467L19.2062 40.2517C18.6808 40.199 18.1839 40.3439 17.769 40.6695L18.3863 41.4562L19.0036 42.2429C19.0112 42.237 19.0147 42.2353 19.0139 42.2357C19.0129 42.2362 19.0097 42.2377 19.0049 42.2391C19 42.2405 18.9964 42.241 18.9951 42.2411C18.994 42.2412 18.9975 42.2408 19.0067 42.2417L19.1064 41.2467ZM18.3863 41.4562L17.769 40.6695L17.4506 40.9193L18.0679 41.706L18.6852 42.4927L19.0036 42.2429L18.3863 41.4562ZM18.0679 41.706L17.4506 40.9193L17.1322 41.1691L17.7496 41.9558L18.3669 42.7425L18.6852 42.4927L18.0679 41.706ZM17.7496 41.9558L17.1322 41.1691C17.123 41.1764 17.1176 41.1794 17.116 41.1802C17.1146 41.181 17.1154 41.1804 17.1178 41.1797C17.1203 41.1789 17.1219 41.1788 17.1215 41.1788C17.1211 41.1788 17.1166 41.1793 17.107 41.1786L17.0324 42.1758L16.9578 43.173C17.4758 43.2118 17.9609 43.0611 18.3669 42.7425L17.7496 41.9558ZM17.0324 42.1758L17.107 41.1786L16.7083 41.1488L16.6337 42.146L16.559 43.1432L16.9578 43.173L17.0324 42.1758ZM16.6337 42.146L16.7083 41.1488L16.3095 41.1189L16.2349 42.1161L16.1603 43.1133L16.559 43.1432L16.6337 42.146ZM16.2349 42.1161L16.3095 41.1189C15.8049 41.0812 15.3275 41.2188 14.9205 41.519L15.514 42.3238L16.1076 43.1286C16.1174 43.1214 16.124 43.1178 16.1272 43.1161C16.1304 43.1146 16.1318 43.1141 16.1321 43.114C16.1325 43.114 16.1339 43.1135 16.1373 43.1132C16.1408 43.1129 16.1482 43.1124 16.1603 43.1133L16.2349 42.1161ZM15.514 42.3238L14.9205 41.519L14.5984 41.7566L15.1919 42.5614L15.7855 43.3662L16.1076 43.1286L15.514 42.3238ZM15.1919 42.5614L14.5984 41.7566L14.2763 41.9941L14.8698 42.7989L15.4634 43.6037L15.7855 43.3662L15.1919 42.5614ZM14.8698 42.7989L14.2763 41.9941C14.2849 41.9878 14.3294 41.9593 14.404 41.9494C14.4787 41.9395 14.5299 41.9554 14.5415 41.9599L14.1764 42.8909L13.8114 43.8219C14.3803 44.0449 14.9732 43.9652 15.4634 43.6037L14.8698 42.7989ZM14.1764 42.8909L14.5415 41.9599L14.1702 41.8143L13.8051 42.7453L13.4401 43.6763L13.8114 43.8219L14.1764 42.8909ZM13.8051 42.7453L14.1702 41.8143L13.7989 41.6687L13.4338 42.5997L13.0688 43.5307L13.4401 43.6763L13.8051 42.7453ZM13.4338 42.5997L13.7989 41.6687C13.815 41.6751 13.8792 41.7059 13.9394 41.7846C13.9999 41.8638 14.0137 41.9354 14.0159 41.9563L13.0213 42.0603L12.0268 42.1642C12.0564 42.4477 12.1527 42.7405 12.3507 42.9995C12.5484 43.2581 12.8051 43.4273 13.0688 43.5307L13.4338 42.5997ZM13.0213 42.0603L14.0159 41.9563L13.9748 41.5624L12.9802 41.6664L11.9856 41.7704L12.0268 42.1642L13.0213 42.0603ZM12.9802 41.6664L13.9748 41.5624L13.9336 41.1686L12.939 41.2726L11.9444 41.3765L11.9856 41.7704L12.9802 41.6664ZM12.939 41.2726L13.9336 41.1686C13.9136 40.9773 13.9151 40.7956 13.9361 40.6219L12.9433 40.5019L11.9506 40.382C11.9109 40.7107 11.9095 41.0427 11.9444 41.3765L12.939 41.2726ZM12.9433 40.5019L13.9361 40.6219L13.9816 40.2451L12.9889 40.1252L11.9961 40.0052L11.9506 40.382L12.9433 40.5019ZM12.9889 40.1252L13.9816 40.2451L14.0272 39.8683L13.0344 39.7484L12.0416 39.6285L11.9961 40.0052L12.9889 40.1252ZM13.0344 39.7484L14.0272 39.8683C14.0759 39.465 14.0322 39.0662 13.9035 38.6825L12.9554 39.0007L12.0074 39.3188C12.0446 39.4297 12.0536 39.5295 12.0416 39.6285L13.0344 39.7484ZM12.9554 39.0007L13.9035 38.6825L13.779 38.3116L12.8309 38.6297L11.8829 38.9478L12.0074 39.3188L12.9554 39.0007ZM12.8309 38.6297L13.779 38.3116L13.6545 37.9406L12.7064 38.2587L11.7584 38.5769L11.8829 38.9478L12.8309 38.6297ZM12.7064 38.2587L13.6545 37.9406C13.6488 37.9236 13.649 37.9162 13.649 37.9132C13.6491 37.9098 13.6498 37.8949 13.6614 37.8647L12.7273 37.5076L11.7932 37.1505C11.6171 37.6111 11.5985 38.1003 11.7584 38.5769L12.7064 38.2587ZM12.7273 37.5076L13.6614 37.8647L13.8067 37.4845L12.8727 37.1274L11.9386 36.7703L11.7932 37.1505L12.7273 37.5076ZM12.8727 37.1274L13.8067 37.4845L13.9521 37.1043L13.018 36.7472L12.084 36.3901L11.9386 36.7703L12.8727 37.1274ZM13.018 36.7472L13.9521 37.1043C14.0559 36.8328 14.1508 36.561 14.2367 36.2888L13.2831 35.9877L12.3295 35.6866C12.2558 35.9202 12.174 36.1547 12.084 36.3901L13.018 36.7472ZM13.2831 35.9877L14.2367 36.2888L14.3565 35.9095L13.4029 35.6084L12.4493 35.3073L12.3295 35.6866L13.2831 35.9877ZM13.4029 35.6084L14.3565 35.9095L14.4763 35.5302L13.5227 35.2291L12.5691 34.928L12.4493 35.3073L13.4029 35.6084ZM13.5227 35.2291L14.4763 35.5302C14.6197 35.076 14.6162 34.6062 14.4602 34.1533L13.5147 34.4789L12.5692 34.8046C12.5835 34.8461 12.5854 34.8764 12.5691 34.928L13.5227 35.2291ZM13.5147 34.4789L14.4602 34.1533L14.3325 33.7824L13.387 34.1081L12.4415 34.4337L12.5692 34.8046L13.5147 34.4789ZM13.387 34.1081L14.3325 33.7824L14.2047 33.4116L13.2592 33.7372L12.3137 34.0629L12.4415 34.4337L13.387 34.1081ZM13.2592 33.7372L14.2047 33.4116C14.1035 33.1176 13.9794 32.8279 13.8336 32.5426L12.9431 32.9976L12.0526 33.4525C12.158 33.6589 12.2447 33.8623 12.3137 34.0629L13.2592 33.7372ZM12.9431 32.9976L13.8336 32.5426L13.6452 32.1738L12.7547 32.6288L11.8642 33.0838L12.0526 33.4525L12.9431 32.9976ZM12.7547 32.6288L13.6452 32.1738L13.4568 31.8051L12.5663 32.26L11.6758 32.715L11.8642 33.0838L12.7547 32.6288ZM12.5663 32.26L13.4568 31.8051C13.4612 31.8137 13.4768 31.8519 13.4757 31.9083C13.4746 31.9627 13.4587 31.9894 13.464 31.9794L12.5816 31.5091L11.6991 31.0387C11.4178 31.5664 11.3935 32.1624 11.6758 32.715L12.5663 32.26ZM12.5816 31.5091L13.464 31.9794L13.6677 31.5973L12.7853 31.1269L11.9028 30.6565L11.6991 31.0387L12.5816 31.5091ZM12.7853 31.1269L13.6677 31.5973L13.8715 31.2151L12.989 30.7447L12.1065 30.2743L11.9028 30.6565L12.7853 31.1269ZM12.989 30.7447L13.8715 31.2151C14.0635 30.8549 14.1872 30.469 14.2237 30.0623L13.2276 29.973L12.2316 29.8837C12.2215 29.9964 12.1862 30.1249 12.1065 30.2743L12.989 30.7447ZM13.2276 29.973L14.2237 30.0623L14.2586 29.6728L13.2626 29.5835L12.2666 29.4942L12.2316 29.8837L13.2276 29.973ZM13.2626 29.5835L14.2586 29.6728L14.2935 29.2833L13.2975 29.194L12.3015 29.1047L12.2666 29.4942L13.2626 29.5835ZM13.2975 29.194L14.2935 29.2833C14.3441 28.7195 14.1472 28.2156 13.7924 27.8182L13.0464 28.4841L12.3004 29.1501C12.3112 29.1622 12.3152 29.1687 12.3154 29.169C12.3155 29.1692 12.3127 29.1645 12.3094 29.1553C12.3061 29.1459 12.3035 29.1352 12.3022 29.1244C12.3009 29.1138 12.3013 29.1068 12.3015 29.1047L13.2975 29.194ZM13.0464 28.4841L13.7924 27.8182L13.5064 27.4978L12.7604 28.1637L12.0144 28.8297L12.3004 29.1501L13.0464 28.4841ZM12.7604 28.1637L13.5064 27.4978L13.2204 27.1774L12.4744 27.8434L11.7284 28.5093L12.0144 28.8297L12.7604 28.1637ZM12.4744 27.8434L13.2204 27.1774C13.0061 26.9373 12.7858 26.7165 12.5593 26.5168L11.8978 27.2667L11.2363 28.0166C11.3972 28.1585 11.5614 28.3222 11.7284 28.5093L12.4744 27.8434ZM11.8978 27.2667L12.5593 26.5168L12.2688 26.2605L11.6073 27.0104L10.9458 27.7604L11.2363 28.0166L11.8978 27.2667ZM11.6073 27.0104L12.2688 26.2605L11.9783 26.0042L11.3168 26.7541L10.6553 27.5041L10.9458 27.7604L11.6073 27.0104ZM11.3168 26.7541L11.9783 26.0042C11.8231 25.8674 11.6835 25.723 11.5584 25.5712L10.7867 26.2072L10.015 26.8432C10.2093 27.0789 10.423 27.2992 10.6553 27.5041L11.3168 26.7541ZM10.7867 26.2072L11.5584 25.5712L11.3188 25.2805L10.5471 25.9165L9.77538 26.5524L10.015 26.8432L10.7867 26.2072ZM10.5471 25.9165L11.3188 25.2805L11.0792 24.9898L10.3075 25.6258L9.5358 26.2617L9.77538 26.5524L10.5471 25.9165ZM10.3075 25.6258L11.0792 24.9898C11.0318 24.9322 10.9912 24.856 10.9673 24.7384L9.98725 24.937L9.00718 25.1356C9.09091 25.5488 9.26378 25.9317 9.5358 26.2617L10.3075 25.6258ZM9.98725 24.937L10.9673 24.7384L10.8866 24.3403L9.90657 24.539L8.9265 24.7376L9.00718 25.1356L9.98725 24.937ZM9.90657 24.539L10.8866 24.3403L10.806 23.9423L9.82589 24.1409L8.84582 24.3395L8.9265 24.7376L9.90657 24.539ZM9.82589 24.1409L10.806 23.9423C10.7147 23.492 10.5039 23.0857 10.1673 22.7587L9.47046 23.4759L8.77364 24.1932C8.80339 24.2221 8.82951 24.2591 8.84582 24.3395L9.82589 24.1409ZM9.47046 23.4759L10.1673 22.7587L9.89251 22.4917L9.19569 23.209L8.49888 23.9262L8.77364 24.1932L9.47046 23.4759ZM9.19569 23.209L9.89251 22.4917L9.61775 22.2248L8.92093 22.942L8.22412 23.6593L8.49888 23.9262L9.19569 23.209ZM8.92093 22.942L9.61775 22.2248C9.42179 22.0344 9.21988 21.8484 9.01206 21.6669L8.35408 22.4199L7.69609 23.1729C7.87773 23.3316 8.05373 23.4938 8.22412 23.6593L8.92093 22.942ZM8.35408 22.4199L9.01206 21.6669L8.71997 21.4116L8.06199 22.1647L7.404 22.9177L7.69609 23.1729L8.35408 22.4199ZM8.06199 22.1647L8.71997 21.4116L8.42788 21.1564L7.76989 21.9094L7.11191 22.6625L7.404 22.9177L8.06199 22.1647ZM7.76989 21.9094L8.42788 21.1564C8.43217 21.1602 8.43912 21.1671 8.44661 21.1773C8.45414 21.1875 8.45979 21.1977 8.46353 21.2063C8.47141 21.2243 8.46496 21.2209 8.46371 21.1802L7.46418 21.2109L6.46465 21.2416C6.48092 21.7711 6.67703 22.2825 7.11191 22.6625L7.76989 21.9094ZM7.46418 21.2109L8.46371 21.1802L8.45008 20.7368L7.45056 20.7675L6.45103 20.7982L6.46465 21.2416L7.46418 21.2109ZM7.45056 20.7675L8.45008 20.7368L8.43646 20.2934L7.43693 20.3241L6.43741 20.3549L6.45103 20.7982L7.45056 20.7675ZM7.43693 20.3241L8.43646 20.2934C8.41778 19.6856 8.13392 19.1402 7.57947 18.8097L7.06744 19.6687L6.55541 20.5276C6.53986 20.5184 6.49909 20.4873 6.46662 20.4296C6.43576 20.3749 6.43694 20.3398 6.43741 20.3549L7.43693 20.3241ZM7.06744 19.6687L7.57947 18.8097L7.2236 18.5976L6.71157 19.4565L6.19954 20.3155L6.55541 20.5276L7.06744 19.6687ZM6.71157 19.4565L7.2236 18.5976L6.86773 18.3854L6.3557 19.2444L5.84367 20.1034L6.19954 20.3155L6.71157 19.4565ZM6.3557 19.2444L6.86773 18.3854C6.68871 18.2787 6.53678 18.1636 6.40813 18.0419L5.72079 18.7682L5.03346 19.4945C5.27686 19.7249 5.54819 19.9272 5.84367 20.1034L6.3557 19.2444ZM5.72079 18.7682L6.40813 18.0419L6.12909 17.7778L5.44176 18.5042L4.75443 19.2305L5.03346 19.4945L5.72079 18.7682ZM5.44176 18.5042L6.12909 17.7778L5.85006 17.5138L5.16273 18.2401L4.4754 18.9665L4.75443 19.2305L5.44176 18.5042ZM5.16273 18.2401L5.85006 17.5138C5.89086 17.5524 5.97483 17.6579 5.9957 17.8252C6.0151 17.9809 5.9652 18.0751 5.96477 18.0759L5.08338 17.6035L4.20199 17.1311C4.06843 17.3803 3.9652 17.7048 4.01105 18.0726C4.05836 18.4522 4.24857 18.7518 4.4754 18.9665L5.16273 18.2401ZM5.08338 17.6035L5.96477 18.0759L6.16445 17.7033L5.28306 17.2309L4.40167 16.7585L4.20199 17.1311L5.08338 17.6035ZM5.28306 17.2309L6.16445 17.7033L6.36413 17.3308L5.48274 16.8584L4.60135 16.386L4.40167 16.7585L5.28306 17.2309ZM5.48274 16.8584L6.36413 17.3308C6.45413 17.1628 6.55227 17.0343 6.65392 16.9351L5.95567 16.2193L5.25742 15.5034C4.99474 15.7596 4.77759 16.0571 4.60135 16.386L5.48274 16.8584ZM5.95567 16.2193L6.65392 16.9351L6.92717 16.6686L6.22892 15.9527L5.53067 15.2369L5.25742 15.5034L5.95567 16.2193ZM6.22892 15.9527L6.92717 16.6686L7.20042 16.4021L6.50216 15.6862L5.80391 14.9704L5.53067 15.2369L6.22892 15.9527ZM6.50216 15.6862L7.20042 16.4021C7.19343 16.4089 7.18073 16.4197 7.16199 16.4309C7.14305 16.4423 7.12236 16.4514 7.10166 16.4577C7.05851 16.4707 7.03905 16.4645 7.06076 16.4675L7.19501 15.4765L7.32927 14.4856C6.78259 14.4115 6.23258 14.5522 5.80391 14.9704L6.50216 15.6862ZM7.19501 15.4765L7.06076 16.4675L7.48036 16.5243L7.61462 15.5334L7.74887 14.5424L7.32927 14.4856L7.19501 15.4765ZM7.61462 15.5334L7.48036 16.5243L7.89996 16.5812L8.03422 15.5902L8.16847 14.5993L7.74887 14.5424L7.61462 15.5334ZM8.03422 15.5902L7.89996 16.5812C8.33604 16.6402 8.77689 16.5967 9.19402 16.4173L8.79888 15.4986L8.40374 14.58C8.36079 14.5985 8.29186 14.616 8.16847 14.5993L8.03422 15.5902ZM8.79888 15.4986L9.19402 16.4173L9.53908 16.2688L9.14394 15.3502L8.7488 14.4316L8.40374 14.58L8.79888 15.4986ZM9.14394 15.3502L9.53908 16.2688L9.88414 16.1204L9.489 15.2018L9.09386 14.2832L8.7488 14.4316L9.14394 15.3502ZM9.489 15.2018L9.88414 16.1204C10.141 16.0099 10.3934 15.888 10.6412 15.7549L10.1679 14.874L9.69454 13.9931C9.49728 14.0991 9.29706 14.1958 9.09386 14.2832L9.489 15.2018ZM10.1679 14.874L10.6412 15.7549L10.975 15.5755L10.5017 14.6946L10.0284 13.8137L9.69454 13.9931L10.1679 14.874ZM10.5017 14.6946L10.975 15.5755L11.3089 15.3961L10.8355 14.5152L10.3622 13.6343L10.0284 13.8137L10.5017 14.6946ZM10.8355 14.5152L11.3089 15.3961C11.5525 15.2652 11.7923 15.1251 12.0283 14.9758L11.4938 14.1306L10.9593 13.2855C10.7627 13.4098 10.5636 13.5261 10.3622 13.6343L10.8355 14.5152ZM11.4938 14.1306L12.0283 14.9758L12.3528 14.7706L11.8182 13.9254L11.2837 13.0803L10.9593 13.2855L11.4938 14.1306ZM11.8182 13.9254L12.3528 14.7706L12.6772 14.5654L12.1427 13.7202L11.6081 12.8751L11.2837 13.0803L11.8182 13.9254ZM12.1427 13.7202L12.6772 14.5654C12.8044 14.4849 12.9354 14.4294 13.0733 14.3953L12.8332 13.4245L12.5932 12.4537C12.2429 12.5403 11.9136 12.6819 11.6081 12.8751L12.1427 13.7202ZM12.8332 13.4245L13.0733 14.3953L13.4393 14.3047L13.1993 13.334L12.9592 12.3632L12.5932 12.4537L12.8332 13.4245ZM13.1993 13.334L13.4393 14.3047L13.8054 14.2142L13.5654 13.2435L13.3253 12.2727L12.9592 12.3632L13.1993 13.334ZM13.5654 13.2435L13.8054 14.2142C14.1967 14.1175 14.5517 13.9374 14.865 13.687L14.2407 12.9058L13.6164 12.1246C13.5174 12.2037 13.4222 12.2487 13.3253 12.2727L13.5654 13.2435ZM14.2407 12.9058L14.865 13.687L15.1742 13.4399L14.5499 12.6587L13.9256 11.8775L13.6164 12.1246L14.2407 12.9058ZM14.5499 12.6587L15.1742 13.4399L15.4834 13.1928L14.8591 12.4116L14.2349 11.6304L13.9256 11.8775L14.5499 12.6587ZM14.8591 12.4116L15.4834 13.1928C15.4909 13.1868 15.4954 13.1842 15.4969 13.1834C15.4977 13.183 15.4982 13.1828 15.4982 13.1828C15.4983 13.1827 15.4983 13.1827 15.4982 13.1828C15.4982 13.1828 15.4982 13.1828 15.4982 13.1828C15.4982 13.1828 15.4983 13.1827 15.4984 13.1827C15.4986 13.1827 15.4988 13.1826 15.4992 13.1825C15.4999 13.1824 15.5012 13.1821 15.5034 13.1818C15.5077 13.1813 15.5164 13.1805 15.5304 13.1811L15.5737 12.1821L15.6171 11.183C15.1119 11.1611 14.635 11.3106 14.2349 11.6304L14.8591 12.4116ZM15.5737 12.1821L15.5304 13.1811L15.9357 13.1987L15.9791 12.1997L16.0224 11.2006L15.6171 11.183L15.5737 12.1821ZM15.9791 12.1997L15.9357 13.1987L16.3411 13.2163L16.3844 12.2173L16.4278 11.2182L16.0224 11.2006L15.9791 12.1997ZM16.3844 12.2173L16.3411 13.2163C16.7776 13.2353 17.2042 13.1474 17.5964 12.9369L17.1234 12.0558L16.6504 11.1747C16.5977 11.203 16.5317 11.2227 16.4278 11.2182L16.3844 12.2173ZM17.1234 12.0558L17.5964 12.9369L17.93 12.7578L17.457 11.8767L16.9841 10.9956L16.6504 11.1747L17.1234 12.0558ZM17.457 11.8767L17.93 12.7578L18.2636 12.5787L17.7907 11.6976L17.3177 10.8165L16.9841 10.9956L17.457 11.8767ZM17.7907 11.6976L18.2636 12.5787C18.4534 12.4768 18.6593 12.3799 18.882 12.2885L18.5025 11.3633L18.1231 10.4381C17.8415 10.5536 17.5728 10.6796 17.3177 10.8165L17.7907 11.6976ZM18.5025 11.3633L18.882 12.2885L19.2603 12.1334L18.8808 11.2082L18.5013 10.283L18.1231 10.4381L18.5025 11.3633ZM18.8808 11.2082L19.2603 12.1334L19.6386 11.9782L19.2591 11.053L18.8796 10.1278L18.5013 10.283L18.8808 11.2082ZM19.2591 11.053L19.6386 11.9782C20.0365 11.815 20.3858 11.5642 20.6562 11.2182L19.8682 10.6024L19.0803 9.98665C19.0429 10.0346 18.986 10.0842 18.8796 10.1278L19.2591 11.053ZM19.8682 10.6024L20.6562 11.2182L20.8871 10.9227L20.0992 10.3069L19.3112 9.69118L19.0803 9.98665L19.8682 10.6024ZM20.0992 10.3069L20.8871 10.9227L21.118 10.6272L20.3301 10.0115L19.5421 9.39571L19.3112 9.69118L20.0992 10.3069ZM20.3301 10.0115L21.118 10.6272C21.2826 10.4166 21.4417 10.2018 21.5953 9.98271L20.7766 9.40857L19.9578 8.83443C19.824 9.02526 19.6854 9.21235 19.5421 9.39571L20.3301 10.0115ZM20.7766 9.40857L21.5953 9.98271L21.8109 9.67528L20.9922 9.10114L20.1734 8.527L19.9578 8.83443L20.7766 9.40857ZM20.9922 9.10114L21.8109 9.67528L22.0265 9.36785L21.2077 8.79371L20.389 8.21957L20.1734 8.527L20.9922 9.10114ZM21.2077 8.79371L22.0265 9.36785C22.2938 8.98672 22.4213 8.55064 22.4527 8.10613L21.4552 8.03555L20.4577 7.96497C20.4466 8.12143 20.4092 8.19079 20.389 8.21957L21.2077 8.79371ZM21.4552 8.03555L22.4527 8.10613L22.4846 7.65541L21.4871 7.58482L20.4896 7.51424L20.4577 7.96497L21.4552 8.03555ZM21.4871 7.58482L22.4846 7.65541L22.5165 7.20468L21.519 7.1341L20.5215 7.06351L20.4896 7.51424L21.4871 7.58482ZM21.519 7.1341L22.5165 7.20468C22.5181 7.18232 22.5196 7.21412 22.4874 7.26705C22.472 7.29248 22.4529 7.31567 22.4322 7.33489C22.4119 7.35377 22.3948 7.36438 22.3861 7.36908L21.9113 6.48895L21.4366 5.60882C20.8597 5.92001 20.564 6.46346 20.5215 7.06351L21.519 7.1341ZM21.9113 6.48895L22.3861 7.36908L22.7465 7.17466L22.2718 6.29453L21.7971 5.4144L21.4366 5.60882L21.9113 6.48895ZM22.2718 6.29453L22.7465 7.17466L23.107 6.98024L22.6322 6.10011L22.1575 5.21997L21.7971 5.4144L22.2718 6.29453ZM22.6322 6.10011L23.107 6.98024C23.534 6.74993 23.8684 6.40081 24.0646 5.94359L23.1456 5.54933L22.2266 5.15508C22.2189 5.17299 22.2111 5.19106 22.1575 5.21997L22.6322 6.10011ZM23.1456 5.54933L24.0646 5.94359L24.2175 5.58724L23.2984 5.19299L22.3794 4.79873L22.2266 5.15508L23.1456 5.54933ZM23.2984 5.19299L24.2175 5.58724L24.3703 5.23089L23.4513 4.83664L22.5323 4.44238L22.3794 4.79873L23.2984 5.19299ZM23.4513 4.83664L24.3703 5.23089C24.394 5.1758 24.4257 5.13522 24.4866 5.09481L23.9336 4.26164L23.3806 3.42848C23.0023 3.67959 22.7125 4.02234 22.5323 4.44238L23.4513 4.83664ZM23.9336 4.26164L24.4866 5.09481L24.816 4.87616L24.263 4.043L23.71 3.20984L23.3806 3.42848L23.9336 4.26164ZM24.263 4.043L24.816 4.87616L25.1454 4.65752L24.5924 3.82436L24.0394 2.99119L23.71 3.20984L24.263 4.043ZM24.5924 3.82436L25.1454 4.65752C25.6039 4.3532 25.883 3.90229 25.9836 3.38251L25.0018 3.19249L24.02 3.00247C24.0173 3.01647 24.0149 3.02279 24.0147 3.02327C24.0146 3.02353 24.0161 3.01962 24.0202 3.01332C24.0243 3.00695 24.0292 3.00093 24.0341 2.99609C24.0388 2.99134 24.0413 2.98992 24.0394 2.99119L24.5924 3.82436ZM25.0018 3.19249L25.9836 3.38251L26.0635 2.9693L25.0818 2.77928L24.1 2.58926L24.02 3.00247L25.0018 3.19249ZM25.0818 2.77928L26.0635 2.9693L26.1435 2.55608L25.1617 2.36606L24.18 2.17604L24.1 2.58926L25.0818 2.77928ZM25.1617 2.36606L26.1435 2.55608C26.14 2.57433 26.1229 2.63014 26.0716 2.68733C26.0225 2.74204 25.9807 2.75498 25.9914 2.75126L25.6638 1.80647L25.3361 0.861678C24.743 1.06738 24.306 1.52478 24.18 2.17604L25.1617 2.36606ZM25.6638 1.80647L25.9914 2.75126L26.4135 2.60488L26.0858 1.66009L25.7581 0.715303L25.3361 0.861678L25.6638 1.80647ZM26.0858 1.66009L26.4135 2.60488L26.8355 2.45851L26.5078 1.51372L26.1802 0.568928L25.7581 0.715303L26.0858 1.66009ZM26.5078 1.51372L26.8355 2.45851C27.117 2.36087 27.2926 2.3038 27.3803 2.27884L27.1065 1.31706L26.8327 0.355278C26.6849 0.397363 26.4614 0.471402 26.1802 0.568928L26.5078 1.51372ZM27.1065 1.31706L27.3803 2.27884L27.5569 2.22855L27.2831 1.26677L27.0093 0.304992L26.8327 0.355278L27.1065 1.31706ZM27.2831 1.26677L27.5569 2.22855L27.7336 2.17827L27.4597 1.21649L27.1859 0.254707L27.0093 0.304992L27.2831 1.26677ZM27.4597 1.21649L27.7336 2.17827C27.8674 2.14015 27.9954 2.10003 28.1166 2.05762L27.7865 1.1137L27.4563 0.169771C27.3774 0.197367 27.2875 0.225774 27.1859 0.254707L27.4597 1.21649ZM27.7865 1.1137L28.1166 2.05762L28.2667 2.00512L27.9366 1.06119L27.6064 0.117268L27.4563 0.169771L27.7865 1.1137ZM27.9366 1.06119L28.2667 2.00512L28.4168 1.95262L28.0867 1.00869L27.7565 0.0647647L27.6064 0.117268L27.9366 1.06119ZM28.0867 1.00869L28.4168 1.95262C28.0672 2.0749 27.7951 1.93637 27.7129 1.88312C27.6374 1.83426 27.6254 1.80207 27.6718 1.86251L28.4651 1.25369L29.2584 0.644871C29.1526 0.506972 29.0014 0.334782 28.7998 0.204256C28.5914 0.0693411 28.2062 -0.0925222 27.7565 0.0647647L28.0867 1.00869ZM28.4651 1.25369L27.6718 1.86251L27.9001 2.16001L28.6934 1.55119L29.4867 0.942371L29.2584 0.644871L28.4651 1.25369Z" fill="var(--stroke-0, white)"/>
</g>
<defs>
<filter id="filter0_d_0_180" x="-5.96046e-08" y="0" width="54.9409" height="51.9462" filterUnits="userSpaceOnUse" color-interpolation-filters="sRGB">
<feFlood flood-opacity="0" result="BackgroundImageFix"/>
<feColorMatrix in="SourceAlpha" type="matrix" values="0 0 0 0 0 0 0 0 0 0 0 0 0 0 0 0 0 0 127 0" result="hardAlpha"/>
<feOffset dy="4"/>
<feGaussianBlur stdDeviation="2"/>
<feComposite in2="hardAlpha" operator="out"/>
<feColorMatrix type="matrix" values="0 0 0 0 0 0 0 0 0 0 0 0 0 0 0 0 0 0 0.12 0"/>
<feBlend mode="normal" in2="BackgroundImageFix" result="effect1_dropShadow_0_180"/>
<feBlend mode="normal" in="SourceGraphic" in2="effect1_dropShadow_0_180" result="shape"/>
</filter>
</defs>
</svg>
